<svg width="24.000000" height="24.000000" viewBox="0 0 24 24" fill="none" xmlns="http://www.w3.org/2000/svg" xmlns:xlink="http://www.w3.org/1999/xlink">
	<desc>
			Created with Pixso.
	</desc>
	<defs>
		<clipPath id="clip2884_3732">
			<rect id="icons" width="24.000000" height="24.000000" fill="white" fill-opacity="0"/>
		</clipPath>
	</defs>
	<g clip-path="url(#clip2884_3732)">
		<path id="Vector" d="M20.1001 15.3C19.3945 16.7118 18.3096 17.8992 16.9673 18.7293C15.625 19.5594 14.0781 19.9994 12.5 20C11.1802 20.0035 9.87793 19.6951 8.7002 19.1L3 21L4.8999 15.3C4.30469 14.1219 3.99658 12.8199 4 11.5C4.00049 9.92181 4.44043 8.37488 5.27051 7.03259C6.10059 5.69031 7.28809 4.60559 8.7002 3.90002C9.87793 3.30493 11.1802 2.99658 12.5 3L13 3C15.0845 3.11499 17.0532 3.99481 18.5293 5.47089C20.0054 6.94696 20.8848 8.91571 21 11L21 11.5C21.0034 12.8199 20.6953 14.1219 20.1001 15.3Z" stroke="#FFFFFF" stroke-opacity="1.000000" stroke-width="2.000000" stroke-linejoin="round"/>
	</g>
</svg>
