<svg width="197" height="40" viewBox="0 0 197 40" fill="none" xmlns="http://www.w3.org/2000/svg">
<path fill-rule="evenodd" clip-rule="evenodd" d="M20 0C8.95431 0 0 8.95431 0 20C0 31.0457 8.95431 40 20 40C31.0457 40 40 31.0457 40 20C40 8.95431 31.0457 0 20 0ZM13.822 31.848C15.67 32.976 17.89 33.54 20.482 33.54C23.47 33.54 25.96 32.796 27.952 31.308C29.944 29.808 31.342 27.792 32.146 25.26L27.772 24.054C27.268 25.734 26.41 27.054 25.198 28.014C23.986 28.974 22.414 29.454 20.482 29.454C18.742 29.454 17.29 29.064 16.126 28.284C14.962 27.504 14.086 26.412 13.498 25.008C12.922 23.592 12.634 21.936 12.634 20.04C12.646 18.144 12.94 16.494 13.516 15.09C14.104 13.674 14.974 12.576 16.126 11.796C17.29 11.016 18.742 10.626 20.482 10.626C22.414 10.626 23.986 11.106 25.198 12.066C26.41 13.014 27.268 14.334 27.772 16.026L32.146 14.82C31.342 12.288 29.944 10.278 27.952 8.79C25.96 7.29 23.47 6.54 20.482 6.54C17.89 6.54 15.67 7.11 13.822 8.25C11.974 9.378 10.552 10.956 9.556 12.984C8.572 15.012 8.08 17.364 8.08 20.04C8.08 22.716 8.572 25.068 9.556 27.096C10.552 29.124 11.974 30.708 13.822 31.848Z" fill="white"/>
<path d="M68.886 13.076H73.104V32.038H68.886V22.576C68.886 19.08 65.732 16.23 61.78 16.23C57.866 16.23 54.674 19.08 54.674 22.576C54.674 26.034 56.802 28.884 59.424 28.884C62.046 28.884 64.174 26.528 64.174 23.602H68.354C68.354 28.542 64.364 32.57 59.424 32.57C54.484 32.57 50.494 28.086 50.494 22.576C50.494 17.028 55.548 12.544 61.78 12.544C63.566 12.544 65.276 12.924 66.758 13.57C67.746 13.988 68.506 14.786 68.962 15.736L69.684 17.408L70.216 17.18L69.266 15.052C69.038 14.52 68.886 13.95 68.886 13.342V13.076ZM86.996 12.544C93.266 12.544 98.32 17.028 98.32 22.576C98.32 28.086 94.33 32.57 89.39 32.57C84.45 32.57 80.422 28.542 80.422 23.602H84.64C84.64 26.528 86.768 28.884 89.39 28.884C91.974 28.884 94.102 26.034 94.102 22.576C94.102 19.08 90.948 16.23 86.996 16.23C83.082 16.23 79.89 19.08 79.89 22.576V32.038H75.71V6.768H79.89V13.342C79.89 13.95 79.776 14.52 79.548 15.052L78.598 17.18L79.092 17.408L79.852 15.736C80.27 14.786 81.068 13.988 82.018 13.57C83.538 12.924 85.21 12.544 86.996 12.544ZM106.322 28.884H108.944V32.57H106.322C102.826 32.57 100.014 30.214 100.014 27.288V6.768H104.194V27.288C104.194 28.162 105.144 28.884 106.322 28.884ZM131.254 22.576C131.254 23.108 131.216 23.64 131.102 24.134H113.052C113.85 26.87 116.624 28.884 119.93 28.884C122.058 28.884 123.92 28.048 125.25 26.756H130.19C128.404 30.176 124.49 32.57 119.93 32.57C113.698 32.57 108.644 28.086 108.644 22.576C108.644 17.028 113.698 12.544 119.93 12.544C125.592 12.544 130.266 16.192 131.102 20.98C131.216 21.512 131.254 22.006 131.254 22.576ZM114.458 20.98H126.808C126.048 18.244 123.236 16.23 119.93 16.23C116.814 16.23 114.192 18.016 113.203 20.486C113.128 20.79 112.976 21.056 112.824 21.284L112.064 22.386L112.558 22.728L113.28 21.588C113.546 21.208 113.964 20.98 114.458 20.98ZM144.293 12.544C149.233 12.544 153.261 16.572 153.261 21.512H149.043C149.043 18.586 146.915 16.23 144.293 16.23C140.379 16.23 137.187 19.08 137.187 22.576V32.038H133.007V13.076H137.187V13.342C137.187 13.95 137.073 14.52 136.845 15.052L135.895 17.18L136.389 17.408L137.149 15.736C137.567 14.786 138.365 13.988 139.315 13.57C140.835 12.924 142.507 12.544 144.293 12.544ZM166.002 12.544C170.942 12.544 174.97 16.572 174.97 21.512H170.752C170.752 18.586 168.624 16.23 166.002 16.23C162.088 16.23 158.896 19.08 158.896 22.576V32.038H154.716V13.076H158.896V13.342C158.896 13.95 158.782 14.52 158.554 15.052L157.604 17.18L158.098 17.408L158.858 15.736C159.276 14.786 160.074 13.988 161.024 13.57C162.544 12.924 164.216 12.544 166.002 12.544ZM187.711 12.544C192.651 12.544 196.679 16.572 196.679 21.512H192.461C192.461 18.586 190.333 16.23 187.711 16.23C183.797 16.23 180.605 19.08 180.605 22.576V32.038H176.425V13.076H180.605V13.342C180.605 13.95 180.491 14.52 180.263 15.052L179.313 17.18L179.807 17.408L180.567 15.736C180.985 14.786 181.783 13.988 182.733 13.57C184.253 12.924 185.925 12.544 187.711 12.544Z" fill="white"/>
</svg>
