<svg width="24.000000" height="24.000000" viewBox="0 0 24 24" fill="none" xmlns="http://www.w3.org/2000/svg" xmlns:xlink="http://www.w3.org/1999/xlink">
	<desc>
			Created with Pixso.
	</desc>
	<defs/>
	<path id="Vector 307" d="M4 6L20 6" stroke="#FFFFFF" stroke-opacity="1.000000" stroke-width="2.000000" stroke-linecap="round"/>
	<path id="Vector 309" d="M5.50146 6C5.50146 6 5.5 14 5.5 17.5C5.5 21 8.00146 22 9 22C9.99854 22 13.9985 22 15 22C16.0015 22 18.5 21 18.5015 17.5C18.5029 14 18.5015 6 18.5015 6" stroke="#FFFFFF" stroke-opacity="1.000000" stroke-width="2.000000" stroke-linecap="round"/>
	<path id="Vector 308" d="M7.49854 5.5C7.49854 5.5 6.99756 2 12 2C17.0024 2 16.5 5.5 16.5 5.5" stroke="#FFFFFF" stroke-opacity="1.000000" stroke-width="2.000000" stroke-linecap="round"/>
	<path id="Vector 310" d="M10 12L10 16M14 12L14 16" stroke="#FFFFFF" stroke-opacity="1.000000" stroke-width="2.000000"/>
</svg>
