<svg width="1064" height="1110" viewBox="0 0 1064 1110" fill="none" xmlns="http://www.w3.org/2000/svg">
<path d="M130.254 307.88C106.087 308.943 78.2842 303.046 55.6375 292.526C60.4243 286.479 51.3468 284.567 53.3123 292.025C47.2799 291.987 48.0923 281.642 44.2968 286.386C43.1349 289.882 40.3785 287.7 40.2438 287.313C35.6924 280.357 25.5921 282.506 20.4896 275.436C23.1134 273.719 21.2955 267.651 18.339 271.132C17.623 275.764 15.8217 272.423 13.766 272.281C11.0758 272.079 13.9861 265.416 8.95801 269.003C6.76856 266.748 -0.455886 265.884 1.12249 262.115C5.34662 263.753 4.34562 255.128 8.96108 257.818C10.2384 258.588 10.9538 260.262 10.5091 262.218C10.0644 264.175 11.9387 263.186 12.7223 263.566C14.7703 264.605 13.487 261.103 14.8892 261.791C18.7571 266.338 24.7381 268.253 30.1053 271.819C29.5073 270.724 28.8369 272.115 28.4893 272.402C23.3596 278.197 34.6612 278.236 30.1053 271.819C33.1673 272.136 36.4231 272.86 36.412 277.388C36.4065 279.652 38.6105 278.151 39.4184 278.931C40.1788 277.184 40.4778 276.809 42.8415 278.058C52.9522 283.874 63.9669 285.827 74.5531 290.915C73.955 289.819 73.2844 291.21 72.9368 291.497C67.8071 297.292 79.109 297.332 74.5531 290.915C77.0519 289.28 78.8211 291.572 80.8979 292.473C82.9475 293.332 81.255 294.798 81.0808 295.804C80.4407 298.007 84.6978 298.79 84.8283 296.445C83.2546 291.586 93.0606 293.615 90.6009 297.128C90.0631 298.67 90.4303 299.322 92.2634 299.669C95.8493 300.058 92.7955 293.729 97.6654 295.717C103.198 296.082 97.4944 300.29 100.824 301.561C102.382 301.851 103.248 301.997 103.182 300.078C102.751 295.601 111.962 297.722 109.309 301.303C108.927 305.538 114.278 303.702 112.133 299.515C110.875 296.412 119.556 298.998 121.353 300.38C120.755 299.285 120.084 300.676 119.737 300.963C114.607 306.758 125.909 306.797 121.353 300.38C126.183 295.673 145.955 305.16 146.788 296.525C148.548 273.127 149.675 248.299 153.739 226.784C156.764 207.138 166.911 187.293 166.928 167.594C165.273 164.156 168.257 161.31 169.362 158.089C188.981 133.533 198.973 99.5737 222.023 75.8056C226.125 67.5302 240.171 62.1461 239.356 52.4481C238.574 47.0713 240.75 42.8512 245.328 40.2123C610.225 -170.124 1131.23 510.859 1056.22 870.662C1050.53 897.913 1027.51 1024.73 915.922 1087.37C901.174 1086.19 886.673 1097.29 868.652 1099.56C844.471 1107.06 817.984 1102.68 794.296 1109.02C530.276 1080.15 324.539 846.048 219.722 616.515C175.263 520.578 147.68 414.429 147.057 308.126C147.432 308.678 147.456 309.191 147.665 309.054C149.381 308.586 151.47 310.057 149.715 307.101C148.841 305.948 147.968 306.519 147.057 308.126C144.969 310.207 139.625 309.361 140.603 306.401C136.765 299.99 136.69 315.624 129.001 305.964C127.87 304.146 127.861 304.984 127.714 306.032C127.407 308.018 129.395 306.658 129.927 307.38C133.334 309.314 129.836 295.424 130.254 307.88ZM342.427 150.956C343.412 150.371 343.594 149.597 342.898 148.624C343.883 148.039 344.065 147.266 343.37 146.293C344.355 145.708 344.537 144.935 343.842 143.963C344.827 143.378 345.15 142.512 344.4 139.731C343.829 140.402 343.788 142.63 344.752 141.285C345.147 140.253 344.807 138.751 344.313 141.632C343.328 142.217 343.146 142.991 343.842 143.963C342.857 144.548 342.674 145.321 343.37 146.293C342.385 146.879 342.202 147.652 342.898 148.624M512.433 721.013C524.729 739.257 540.607 753.314 553.265 771.203C637.228 859.79 739.417 948.166 864.802 966.522C870.952 968.921 874.005 964.426 877.381 960.313C878.785 959.097 881.425 958.975 881.058 956.777C870.322 954.642 858.669 949.181 847.504 947.208C551.377 832.456 316.742 468.207 342.454 150.998C307.152 286.936 349.685 432.611 409.494 554.55C418.897 581.826 438.436 605.384 450.745 631.829C450.825 633.68 452.086 636.899 455.525 635.065C456.094 634.753 455.934 635.69 456.152 636.023C457.574 639.196 458.761 635.981 460.831 636.054C464.622 639.938 453.535 640.293 458.972 645.419C471.025 666.202 487.272 683.706 499.506 704.311M291.903 212.093C292.888 211.508 293.07 210.734 292.375 209.762C293.36 209.177 293.542 208.403 292.846 207.431C293.831 206.846 294.155 205.98 293.405 203.199C292.833 203.87 292.792 206.098 293.756 204.753C294.152 203.721 293.812 202.219 293.318 205.1C292.333 205.685 292.15 206.458 292.846 207.431C291.861 208.016 291.679 208.79 292.375 209.762C291.417 210.389 291.234 211.162 291.903 212.093ZM413.455 667.413C415.052 667.855 414.425 666.481 414.526 665.998C415.27 661.228 415.146 661.012 418.074 659.215C421.121 648.418 403.557 636.238 401.039 624.026C332.397 503.406 287.318 362.548 290.943 222.833C273.878 321.557 300.921 426.334 337.699 518.078C336.294 522.566 342.398 524.818 341.035 529.279M797.357 990.611C798.248 991.337 798.71 991.808 799.682 991.112C800.267 992.098 801.035 992.31 802.007 991.614C802.592 992.599 803.359 992.81 804.332 992.114C804.917 993.1 805.992 993.11 807.589 992.005C807.38 992.142 806.865 992.479 806.657 992.615C807.027 992.908 807.405 993.196 807.831 993.393C809.211 993.502 808.486 991.775 806.657 992.615C806.071 991.63 805.304 991.419 804.332 992.114C803.747 991.129 802.979 990.918 802.007 991.614C801.422 990.629 800.654 990.417 799.682 991.112C799.07 990.086 798.329 989.916 797.357 990.611C796.645 989.887 796.567 988.512 795.201 988.334L797.357 990.611ZM427.403 670.419C422.961 663.63 423.188 663.601 416.079 668.372C422.068 694.432 450.524 721.374 466.716 745.754C548.414 848.967 653.233 952.695 784.861 986.773C702.318 951.624 624.309 901.017 561.463 835.611C532.791 809.702 504.259 780.491 481.819 747.471M739.338 990.45C739.923 991.435 740.691 991.647 741.663 990.951C742.249 991.936 742.857 992.252 744.454 991.147C744.246 991.283 744.197 991.316 743.988 991.452C744.359 991.745 744.737 992.033 745.163 992.23C746.542 992.338 745.818 990.612 743.988 991.452C743.403 990.467 742.636 990.255 741.663 990.951C741.051 989.924 740.311 989.754 739.338 990.45ZM450.133 775.343C522.25 862.461 620.046 968.821 737.013 989.949C640.359 948.687 552.322 882.041 484.983 801.134C452.656 765.186 419.781 725.134 396.256 681.82C393.057 684.568 384.219 685.771 389.005 691.085C397.571 704.812 406.511 717.877 416.649 730.277M736.026 1000.65C736.612 1001.63 737.379 1001.84 738.351 1001.15C738.937 1002.13 739.704 1002.34 740.676 1001.65C742.662 1003.5 744.695 1003.36 746.697 1001.69C747.282 1002.68 747.891 1003 749.488 1001.89C749.28 1002.03 749.23 1002.06 749.022 1002.2C749.392 1002.49 749.77 1002.78 750.196 1002.97C751.576 1003.08 750.851 1001.36 749.022 1002.2C748.437 1001.21 747.669 1001 746.697 1001.69C744.711 999.842 742.678 999.982 740.676 1001.65C740.091 1000.66 739.324 1000.45 738.351 1001.15C737.697 1000.15 736.957 999.979 736.026 1000.65ZM368.123 721.227C365.018 716.299 361.913 711.372 358.557 706.608C330.505 714.734 369.354 740.05 375.118 755.313C395.264 783.826 418.704 810.482 441.509 836.423C445.229 837.2 445.635 841.932 448.388 842.866C452.448 844.254 452.492 849.579 456.989 849.907C531.008 922.933 628.184 992.88 733.701 1000.15C607.674 971.445 498.226 886.568 419.557 787.618M248.513 246.494C249.498 245.909 249.681 245.135 248.985 244.163C249.931 243.246 251.795 243.336 250.476 239.321C249.23 241.326 251.706 241.728 251.242 239.474C251.256 239.405 251.119 239.138 250.855 240.917C249.908 241.834 247.678 241.984 248.985 244.163C247.985 244.817 247.845 245.563 248.513 246.494C247.528 247.079 247.346 247.853 248.042 248.825C247.056 249.41 246.874 250.184 247.57 251.156C246.585 251.741 246.403 252.515 247.098 253.487C195.848 407.594 265.672 580.677 343.411 710.928C345.214 711.593 348.165 711.981 347.192 709.585C345.672 703.263 351.718 703.649 356.031 699.696C354.064 700.508 355.338 702.469 354.652 703.691C359.951 707.064 360.209 695.951 354.633 700.611C327.58 654.907 301.759 606.967 283.293 558.023C245.017 462.263 226.362 355.982 246.632 253.792C247.617 253.207 248.266 252.128 247.57 251.156C248.555 250.571 248.737 249.797 248.042 248.825C249.068 248.212 249.209 247.466 248.513 246.494ZM248.973 318.404C247.988 318.989 247.806 319.763 248.502 320.735C246.501 322.223 248.456 323.263 249.392 325.148C240.774 409.602 274.888 508.502 311.591 588.043C326.172 624.778 347.216 659.426 366.061 694.679C364.683 697.663 371.317 697.425 369.948 694.515C368.118 687.265 380.875 687.959 373.819 680.085C363.923 666.872 358.045 651.566 348.509 638.356C333.473 606.379 317.145 574.415 302.961 541.286C304.599 537.062 298.424 534.976 300.062 530.752C272.296 465.052 257.194 394.336 248.93 324.441C250.93 322.953 248.975 321.913 248.502 320.735C249.487 320.15 249.669 319.376 248.973 318.404C250.974 316.917 249.16 315.784 248.633 312.798C248.061 313.469 248.486 315.391 249.45 314.047C249.846 313.015 249.039 311.818 248.545 314.699C246.545 316.186 248.5 317.227 248.973 318.404ZM158.734 351.402C160.735 349.914 158.779 348.873 158.306 347.696C160.159 345.71 159.84 343.778 156.716 308.646C155.293 318.559 155.758 331.698 158.35 341.66C159.555 331.593 159.67 318.669 158.003 308.577C157.798 308.355 157.378 308.451 158.35 341.66C156.497 343.646 156.639 345.694 158.306 347.696C156.195 349.196 158.234 350.183 158.734 351.402C156.734 352.889 158.689 353.929 159.162 355.107C157.161 356.594 159.117 357.635 159.999 359.437C159.862 359.229 159.726 359.021 159.59 358.812C159.297 359.183 158.661 359.717 158.464 360.144C158.355 361.523 160.43 360.642 159.59 358.812C161.59 357.325 159.635 356.284 159.162 355.107C161.19 353.661 159.235 352.621 158.734 351.402ZM619.698 1046.67C618.489 1044.37 616.71 1043.39 614.149 1044.3C613.232 1043.35 613.103 1041.11 610.924 1042.42C610.008 1041.47 609.879 1039.24 607.7 1040.55C605.32 1038 602.91 1035.47 598.9 1036.25C597.983 1035.31 597.854 1033.07 595.676 1034.38C594.759 1033.43 594.164 1031.5 591.985 1032.81C591.068 1031.86 590.939 1029.62 588.761 1030.93C587.844 1029.98 587.715 1027.75 585.537 1029.06C584.62 1028.11 584.491 1025.87 582.312 1027.18C581.396 1026.23 581.267 1024 579.088 1025.3C578.171 1024.36 578.401 1021.89 574.387 1023.21C576.391 1024.45 576.834 1022.02 574.58 1022.48C574.511 1022.47 574.086 1023.17 575.864 1023.43C576.781 1024.38 576.91 1026.61 579.088 1025.3C580.005 1026.25 580.134 1028.49 582.312 1027.18C583.229 1028.13 583.358 1030.36 585.537 1029.06C586.454 1030 586.582 1032.24 588.761 1030.93C589.678 1031.88 589.807 1034.11 591.985 1032.81C592.902 1033.75 593.497 1035.68 595.676 1034.38C596.593 1035.32 596.721 1037.56 598.9 1036.25C601.28 1038.8 603.69 1041.33 607.7 1040.55C608.617 1041.49 608.746 1043.73 610.924 1042.42C611.841 1043.37 611.97 1045.6 614.149 1044.3M159.649 367.041C159.078 367.713 159.503 369.635 160.467 368.29C160.862 367.258 160.522 365.756 160.028 368.637C158.027 370.125 159.517 371.47 159.99 372.648C157.989 374.135 159.944 375.176 160.418 376.353C158.417 377.841 160.372 378.881 160.845 380.058C158.844 381.546 160.8 382.587 161.273 383.764C159.272 385.252 161.228 386.292 162.109 388.094C161.973 387.886 161.837 387.678 161.701 387.47C161.408 387.84 161.238 388.07 161.041 388.496C160.933 389.876 162.541 389.299 161.701 387.47C163.701 385.982 161.746 384.942 161.273 383.764C163.274 382.276 161.318 381.236 160.845 380.058C162.846 378.571 160.891 377.531 160.418 376.353C162.418 374.866 160.463 373.825 159.99 372.648C162.032 371.133 160.134 370.055 159.649 367.041ZM393.706 713.527C390.49 708.613 387.274 703.698 384.058 698.784C379.625 690.918 378.242 693.192 371.801 697.347C380.532 722.505 405.003 749.794 422.005 773.049C436.855 791.288 450.693 813.52 468.871 828.392C503.449 864.235 543.332 901.961 586.558 925.84C555.492 899 521.338 871.742 494.292 839.773C465.316 810.673 438.129 777.726 414.945 742.932M376.477 668.889C381.101 673.774 380.947 683.034 388.6 679.276C389.396 679.766 387.722 680.862 389.442 681.58C401.109 679.775 368.163 638.64 364.952 629.915C353.594 607.012 342.69 583.038 331.072 559.83C284.717 448.18 254.166 322.976 277.125 201.717C220.83 301.666 292.16 502.018 339.037 599.467M838.056 399.733C859.091 432.424 880.671 466.662 894.865 501.806C900.579 510.083 902.542 520.277 908.312 528.458C946.572 625.511 979.233 751.932 949.962 856.59C938.618 897.15 918.065 934.379 884.756 965.48C883.868 970.76 875.79 971.228 873.673 974.992C872.516 977.951 868.706 976.518 868.326 979.027C867.71 983.177 863.805 979.963 862.296 982.021C861.122 983.681 858.505 983.491 858.453 986.32C681.832 1072.1 494.448 918.424 388.493 787.959C372.277 766.45 354.958 744.832 340.535 721.792C339.532 719.713 338.629 718.876 336.324 720.443C290.364 748.378 301.38 740.812 329.641 782.455C445.452 941.981 668.331 1144.93 882.249 1061.34C1081.94 956.004 1022.63 665.939 941.676 497.048C905.991 414.7 851.645 337.962 794.271 268.736C783.726 258.803 775.218 248.191 765.839 237.495C649.432 121.781 471.336 -7.5152 300.277 62.1306C248.767 82.0385 211.791 130.146 189.936 180.375C175.617 214.668 167.101 257.417 165.594 294.747C166.533 302.817 174.604 293.312 179.104 298.099C181.976 299.67 181.266 293.831 184.834 294.648C191.023 294.107 183.996 299.895 189.225 300.34C193.207 302.79 181.324 306.759 179.2 303.331C177.858 302.008 176.449 303.049 176.076 304.661C175.009 309.939 164.093 304.474 164.239 309.969C164.865 343.286 164.93 376.909 170.972 409.775C184.707 509.936 224.667 604.477 271.185 692.108C277.426 696.827 300.991 751.001 302.23 738.532C300.509 734.72 304.105 733.735 306.133 732.289C306.835 729.272 313.522 736.555 313.797 731.795C312.541 726.966 316.055 725.678 319.677 723.486C320.12 723.255 321.869 722.348 321.344 724C320.577 728.19 326.776 725.561 324.85 723.253C322.104 719.875 329.633 715.543 333.018 718.443C343.398 720.216 320.888 694.261 320.948 688.808C301.322 660.906 289.859 628.079 273.74 598.357C208.888 447.895 168.668 186.441 365.636 120.303C398.362 112.568 430.751 111.448 462.377 115.55C582.688 131.158 692.207 222.179 770.622 309.908C788.119 330.102 804.816 352.664 821.513 374.453M481.898 618.402C479.087 616.197 476.309 624.855 481.666 623.134C475.335 609.551 559.674 728.346 581.214 748.81C664.793 836.992 765.895 917.932 886.555 947.885C914.495 933.588 931.969 884.204 940.371 854.14C986.252 645.016 872.564 434.255 736.371 285.033C732.013 284.554 732.815 278.139 728.317 277.811C656.25 204.222 564.925 141.451 461.466 124.332C431.987 121.733 371.37 114.528 353.869 139.958C349.747 179.654 346.892 219.769 351.051 259.756C360.307 358.982 393.691 454.91 438.481 542.898C450.818 567.659 465.164 591.938 479.497 615.75C481.251 620.431 484.919 612.499 486.719 616.615C492.367 621.246 482.856 621.701 486.283 626.12C507.791 659.988 563.73 731.819 481.898 618.402ZM63.528 289.326C61.2024 291.68 62.3747 294.125 65.8146 293.837C66.5189 292.186 66.6901 287.613 63.528 289.326ZM380.976 684.919C377.226 682.734 375.669 690.712 380.69 689.568C380.716 688.063 382.206 686.434 380.976 684.919ZM403.348 670.279C399.598 668.094 398.041 676.072 403.062 674.928C403.13 673.396 404.619 671.767 403.348 670.279ZM422.234 659.467C425.286 660.86 427.195 659.076 425.938 655.973C423.546 653.136 422.43 657.495 422.234 659.467ZM445.154 644.647C446.256 644.878 447.238 645.128 448.272 645.344C450.848 639.554 444.462 638.319 445.154 644.647ZM151.157 300.15C150.068 298.304 148.158 299.852 147.925 301.314C149.317 301.533 152.376 302.921 151.157 300.15ZM505.392 973.719C505.047 973.647 504.874 973.582 504.599 973.525C504.661 974.257 504.503 975.015 505.525 974.941C505.501 974.54 505.416 974.12 505.392 973.719ZM176.663 470.352C176.591 470.696 176.581 470.881 176.524 471.156C177.256 471.094 177.996 471.263 177.922 470.241C177.48 470.293 177.063 470.327 176.663 470.352ZM175.169 466.035C176.076 466.512 176.175 465.793 176.567 465.12C175.66 464.643 175.52 465.389 175.169 466.035ZM539.394 999.233C539.212 999.59 539.013 999.958 538.789 1000.34C539.696 1000.82 539.795 1000.1 540.188 999.427C539.912 999.37 539.67 999.29 539.394 999.233ZM169.019 433.24C168.837 433.597 168.638 433.965 168.414 434.35C169.321 434.827 169.42 434.108 169.812 433.435C169.537 433.377 169.295 433.298 169.019 433.24ZM542.616 1002.12C542.961 1002.19 543.134 1002.26 543.409 1002.32C543.347 1001.58 543.505 1000.83 542.482 1000.9C542.534 1001.34 542.592 1001.72 542.616 1002.12ZM547.424 1005.4C547.496 1005.05 547.505 1004.87 547.563 1004.59C546.831 1004.66 546.091 1004.49 546.165 1005.51C546.607 1005.46 547.023 1005.42 547.424 1005.4ZM167.21 424.371C167.027 424.729 166.829 425.097 166.605 425.481C167.512 425.958 167.611 425.239 168.003 424.566C167.727 424.509 167.554 424.443 167.21 424.371ZM550.018 1007.33C550.363 1007.4 550.536 1007.47 550.811 1007.52C550.749 1006.79 550.907 1006.03 549.885 1006.11C549.909 1006.51 549.967 1006.89 550.018 1007.33ZM166.782 420.666C166.6 421.023 166.401 421.391 166.177 421.776C167.084 422.253 167.183 421.534 167.576 420.861C167.3 420.804 167.058 420.723 166.782 420.666ZM553.433 1009.5C553.616 1009.14 553.814 1008.77 554.038 1008.39C553.131 1007.91 553.032 1008.63 552.64 1009.3C552.916 1009.36 553.116 1009.47 553.433 1009.5ZM166.984 416.905C166.639 416.833 166.466 416.768 166.191 416.71C166.253 417.443 166.095 418.201 167.118 418.127C167.093 417.726 167.008 417.306 166.984 416.905ZM165.161 413.102C165.344 412.745 165.542 412.377 165.766 411.993C164.859 411.515 164.76 412.234 164.368 412.908C164.643 412.965 164.858 413.003 165.161 413.102ZM560.836 1014.71C561.018 1014.35 561.217 1013.98 561.441 1013.6C560.534 1013.12 560.435 1013.84 560.043 1014.51C560.291 1014.53 560.533 1014.61 560.836 1014.71ZM165.202 408.079C164.858 408.007 164.685 407.942 164.409 407.884C164.472 408.616 164.313 409.374 165.335 409.3C165.284 408.858 165.226 408.479 165.202 408.079ZM563.872 1015.28C563.689 1015.63 563.491 1016 563.267 1016.39C564.174 1016.86 564.273 1016.14 564.665 1015.47C564.389 1015.41 564.175 1015.37 563.872 1015.28ZM164.747 404.331C164.402 404.26 164.229 404.194 163.954 404.137C164.017 404.869 163.858 405.627 164.88 405.553C164.856 405.152 164.771 404.732 164.747 404.331ZM567.123 1017.19C566.941 1017.55 566.743 1017.92 566.518 1018.3C567.425 1018.78 567.524 1018.06 567.917 1017.39C567.683 1017.3 567.441 1017.22 567.123 1017.19ZM159.715 363.073C159.532 363.43 159.334 363.798 159.11 364.182C160.017 364.66 160.116 363.941 160.508 363.267C160.232 363.21 160.018 363.172 159.715 363.073ZM595.514 933.423C595.817 933.522 596.498 933.255 596.773 933.312C596.711 932.58 596.869 931.822 595.846 931.896C595.871 932.297 595.49 933.022 595.514 933.423ZM247.793 309.48C247.722 309.825 247.712 310.01 247.654 310.285C248.387 310.222 249.127 310.392 249.053 309.37C248.611 309.422 248.194 309.456 247.793 309.48Z" fill="black"/>
</svg>
