<svg width="805" height="914" viewBox="0 0 805 914" fill="none" xmlns="http://www.w3.org/2000/svg">
<path d="M521.182 107.369C516.646 88.8416 516.946 66.3873 521.621 47.182C527.043 49.9174 527.131 42.5881 521.652 45.3026C520.755 40.6294 528.898 39.6019 524.638 37.4248C521.75 37.0855 523.017 34.6037 523.297 34.4374C527.989 29.8027 524.772 22.3322 529.468 17.2526C531.202 19.0077 535.626 16.63 532.473 14.8999C528.773 15.0874 531.086 13.159 530.88 11.5458C530.624 9.43201 536.235 10.617 532.682 7.30117C534.094 5.24621 533.654 -0.481516 536.817 0.136312C536.197 3.66653 542.728 1.51149 541.352 5.51301C540.951 6.6245 539.764 7.44591 538.18 7.41505C536.595 7.3842 537.649 8.67607 537.475 9.34309C536.984 11.094 539.502 9.5404 539.183 10.7355C536.253 14.4559 535.688 19.3899 533.748 24.1133C534.505 23.4752 533.324 23.1792 533.048 22.9563C527.768 19.9152 529.474 28.6654 533.748 24.1133C533.973 26.5329 533.912 29.1679 530.401 29.8841C528.645 30.2422 530.147 31.7071 529.667 32.457C531.138 32.7657 531.474 32.9371 530.869 34.9658C527.914 43.7192 528.093 52.5537 525.775 61.5586C526.533 60.9205 525.352 60.6242 525.076 60.4012C519.796 57.3602 521.501 66.1107 525.775 61.5586C527.426 63.2302 525.922 64.9658 525.542 66.7169C525.191 68.4402 523.795 67.3653 522.989 67.3915C521.183 67.249 521.23 70.668 523.068 70.3935C526.592 68.3981 526.525 76.3098 523.425 74.9691C522.147 74.7998 521.698 75.1882 521.711 76.662C521.96 79.4987 526.397 76.1228 525.604 80.2089C526.171 84.5478 522.032 80.8088 521.559 83.5885C521.574 84.8398 521.593 85.5337 523.071 85.175C526.474 84.1249 526.245 91.5913 523.063 90.1114C519.722 90.4943 521.966 94.3401 524.882 92.0099C527.094 90.5405 526.423 97.6707 525.628 99.282C526.385 98.6439 525.204 98.3479 524.928 98.1249C519.648 95.0839 521.354 103.834 525.628 99.282C530.018 102.266 525.703 119.081 532.523 118.343C550.929 115.96 570.345 112.857 587.645 112.557C603.337 111.753 620.277 116.426 635.548 113.286C637.958 111.455 640.623 113.309 643.289 113.647C665.336 124.896 693.191 127.19 715.154 141.219C722.198 143.068 728.529 153.073 735.92 150.89C739.968 149.424 743.573 150.432 746.322 153.552C965.4 402.195 517.617 914.296 227.22 913.86C205.226 913.827 103.399 916.315 37.7081 840.008C36.3537 828.41 25.526 818.967 20.9941 805.389C11.4694 787.88 10.7946 766.687 2.24122 749.375C-15.9354 540.485 133.905 343.835 295.71 225.996C363.239 176.24 441.275 137.908 523.572 120.409C523.202 120.787 522.809 120.888 522.946 121.028C523.573 122.28 522.754 124.132 524.775 122.301C525.535 121.44 524.958 120.857 523.572 120.409C521.639 119.126 521.474 114.857 523.918 115.139C528.297 111.144 516.169 113.588 522.475 106.093C523.71 104.927 523.059 105.054 522.224 105.108C520.638 105.189 521.998 106.509 521.52 107.036C520.544 109.982 530.772 105.052 521.182 107.369ZM675.402 246.403C676.007 247.071 676.635 247.088 677.282 246.394C677.886 247.063 678.514 247.08 679.161 246.386C679.766 247.055 680.393 247.072 681.04 246.378C681.645 247.047 682.365 247.158 684.406 246.133C683.797 245.798 682.065 246.123 683.255 246.654C684.116 246.795 685.228 246.291 682.919 246.37C682.314 245.701 681.686 245.684 681.04 246.378C680.435 245.71 679.808 245.692 679.161 246.386C678.556 245.718 677.928 245.701 677.282 246.394M259.68 469.189C247.427 481.623 238.971 496.158 227.05 508.815C171.287 587.956 118.486 681.166 123.519 781.112C122.604 786.255 126.557 787.897 130.263 789.85C131.422 790.742 131.922 792.766 133.569 792.129C133.574 783.481 136.017 773.591 135.831 764.637C179.285 517.159 425.563 277.317 675.374 246.431C564.589 240.879 458.213 297.106 372.888 362.9C353.191 374.541 337.934 393.429 319.328 407.185C317.906 407.544 315.604 409.034 317.554 411.402C317.883 411.792 317.132 411.818 316.908 412.04C314.667 413.648 317.341 414.052 317.603 415.665C315.175 419.22 313.196 410.699 310.058 415.726C295.801 428.379 284.73 443.75 270.639 456.514M620.255 217.1C620.86 217.769 621.488 217.786 622.134 217.092C622.739 217.761 623.367 217.778 624.014 217.084C624.619 217.752 625.339 217.864 627.38 216.839C626.771 216.504 625.039 216.829 626.229 217.359C627.09 217.5 628.202 216.997 625.893 217.076C625.288 216.407 624.661 216.39 624.014 217.084C623.409 216.415 622.781 216.399 622.134 217.092C621.501 216.452 620.874 216.434 620.255 217.1ZM286.019 384.031C285.922 385.338 286.891 384.632 287.28 384.633C291.092 384.446 291.241 384.315 293.083 386.293C301.92 386.922 308.662 371.383 317.74 367.48C400.686 295.064 502.937 237.638 611.784 218.077C532.643 220.678 455.588 258.373 390.128 301.515C386.434 301.146 385.627 306.229 381.959 305.889M94.4874 732.788C94.062 733.593 93.7676 734.026 94.4562 734.667C93.7825 735.277 93.7361 735.905 94.4247 736.546C93.751 737.156 93.7052 737.784 94.3938 738.424C93.7201 739.035 93.8772 739.868 94.9786 740.927C94.841 740.788 94.5002 740.443 94.3626 740.303C94.1923 740.637 94.0273 740.975 93.9402 741.337C94.068 742.421 95.2949 741.584 94.3626 740.303C95.0363 739.693 95.0824 739.065 94.3938 738.424C95.0675 737.814 95.1133 737.187 94.4247 736.546C95.0983 735.935 95.1448 735.308 94.4562 734.667C95.1579 734.028 95.176 733.429 94.4874 732.788C94.9392 732.121 95.9934 731.84 95.9212 730.755L94.4874 732.788ZM285.832 395.304C290.411 390.781 290.469 390.951 285.679 386.215C266.401 395.021 249.89 421.349 233.481 437.779C166.032 517.51 101.736 615.211 95.5427 722.505C110.107 653.017 137.348 584.561 178.389 525.468C194.066 499.137 212.324 472.386 234.47 449.739M85.7005 687.874C85.0268 688.484 84.9804 689.112 85.669 689.753C84.9953 690.363 84.8444 690.885 85.9458 691.944C85.8082 691.804 85.7754 691.771 85.6378 691.632C85.4675 691.965 85.3025 692.304 85.2153 692.665C85.3432 693.75 86.5701 692.913 85.6378 691.632C86.3115 691.021 86.3576 690.394 85.669 689.753C86.3707 689.115 86.3891 688.515 85.7005 687.874ZM208 429.686C151.554 499.427 84.1401 592.117 85.7317 685.995C102.865 604.61 140.998 525.828 193.363 460.778C216.26 430.012 242.253 398.166 272.211 373.031C269.59 370.996 267.3 364.351 263.916 368.904C254.593 377.729 245.84 386.738 237.785 396.566M77.2879 686.944C76.6142 687.554 76.5678 688.182 77.2564 688.823C76.5827 689.433 76.5369 690.061 77.2255 690.702C76.0943 692.535 76.5153 694.085 78.115 695.367C77.4413 695.977 77.2904 696.499 78.3918 697.558C78.2542 697.418 78.2214 697.385 78.0838 697.246C77.9135 697.579 77.7485 697.918 77.6614 698.279C77.7892 699.364 79.0161 698.527 78.0838 697.246C78.7575 696.635 78.8036 696.008 78.115 695.367C79.2462 693.534 78.8251 691.984 77.2255 690.702C77.8992 690.091 77.945 689.464 77.2564 688.823C77.9306 688.157 77.949 687.557 77.2879 686.944ZM237.346 357.574C240.688 354.382 244.03 351.191 247.207 347.832C236.6 327.43 222.945 361.539 212.002 368.442C192.996 388.593 175.936 410.995 159.333 432.791C159.302 435.794 155.697 436.865 155.396 439.145C154.944 442.509 150.823 443.395 151.26 446.927C106.029 515.884 66.7427 602.264 77.3191 685.065C80.2058 582.965 129.179 484.7 193.789 407.995M586.927 189.038C587.532 189.706 588.159 189.723 588.806 189.029C589.662 189.615 589.879 191.071 592.788 189.408C591.043 188.765 591.111 190.745 592.787 190.025C592.843 190.025 593.028 189.876 591.609 189.956C590.753 189.371 590.294 187.67 588.806 189.029C588.146 188.361 587.546 188.371 586.927 189.038C586.322 188.369 585.694 188.352 585.048 189.046C584.443 188.377 583.815 188.36 583.169 189.054C582.564 188.386 581.936 188.368 581.289 189.062C453.972 174.08 330.545 255.809 241.532 336.806C241.294 338.307 241.446 340.652 243.154 339.515C247.821 337.328 248.45 342.067 252.177 344.771C251.245 343.379 249.921 344.679 248.868 344.344C247.068 348.984 255.721 347.404 251.253 343.836C282.522 315.589 315.712 287.938 350.811 265.816C419.153 220.873 498.663 189.427 580.981 188.751C581.586 189.419 582.522 189.748 583.169 189.054C583.774 189.723 584.401 189.74 585.048 189.046C585.68 189.742 586.28 189.732 586.927 189.038ZM531.262 200.905C530.657 200.236 530.029 200.219 529.383 200.913C527.922 199.604 527.417 201.282 526.099 202.309C459.317 209.16 387.902 251.386 331.89 292.515C305.657 309.677 282.035 331.505 257.606 351.729C255.081 351.14 256.285 356.234 258.33 354.709C263.668 352.133 265.09 362.114 270.109 355.394C278.83 345.623 289.791 338.625 298.565 329.132C321.039 312.38 343.306 294.631 366.804 278.354C370.33 278.944 370.998 273.833 374.524 274.424C421.181 242.425 473.671 219.421 526.576 201.837C528.037 203.147 528.543 201.468 529.383 200.913C529.987 201.582 530.615 201.599 531.262 200.905C532.722 202.215 533.321 200.63 535.555 199.744C534.946 199.409 533.522 200.046 534.712 200.576C535.573 200.717 536.377 199.902 534.068 199.981C532.608 198.671 532.102 200.35 531.262 200.905ZM491.825 136.371C493.285 137.681 493.791 136.001 494.631 135.447C496.455 136.562 497.903 136.006 524.654 127.965C516.751 128.451 506.639 130.914 499.316 134.514C507.304 133.835 517.338 131.855 524.904 128.95C525.045 128.755 524.906 128.446 499.316 134.514C497.492 133.399 495.927 133.836 494.631 135.447C493.144 134.053 492.693 135.789 491.825 136.371C490.364 135.061 489.858 136.74 489.018 137.295C487.558 135.985 487.052 137.665 485.791 138.635C485.931 138.497 486.072 138.358 486.212 138.219C485.88 138.051 485.368 137.645 485.007 137.561C483.921 137.698 484.923 139.162 486.212 138.219C487.672 139.529 488.178 137.849 489.018 137.295C490.451 138.632 490.956 136.953 491.825 136.371ZM23.7452 604.31C25.3437 603.007 25.8283 601.474 24.7349 599.637C25.3277 598.776 27.0407 598.318 25.6933 596.842C26.2861 595.981 27.9988 595.523 26.6514 594.047C28.2596 591.798 29.8481 589.529 28.6274 586.551C29.2203 585.69 30.9329 585.233 29.5856 583.756C30.1784 582.895 31.5834 582.126 30.236 580.65C30.8288 579.789 32.5418 579.331 31.1944 577.855C31.7873 576.994 33.4999 576.537 32.1526 575.06C32.7454 574.199 34.4584 573.742 33.111 572.265C33.7038 571.404 35.4168 570.947 34.0694 569.47C34.6623 568.61 36.6124 568.392 34.9737 565.497C34.3161 567.248 36.2685 567.201 35.5627 565.531C35.5632 565.476 34.9587 565.258 35.0276 566.676C34.4347 567.537 32.722 567.994 34.0694 569.47C33.4766 570.331 31.7636 570.789 33.111 572.265C32.5182 573.126 30.8052 573.584 32.1526 575.06C31.5597 575.921 29.847 576.378 31.1944 577.855C30.6016 578.716 28.8886 579.173 30.236 580.65C29.6432 581.511 28.2382 582.28 29.5856 583.756C28.9927 584.617 27.28 585.075 28.6274 586.551C27.0192 588.8 25.4307 591.069 26.6514 594.047C26.0586 594.908 24.3459 595.365 25.6933 596.842C25.1005 597.703 23.3875 598.16 24.7349 599.637M479.843 139.582C479.235 139.248 477.81 139.884 479.001 140.415C479.861 140.555 480.973 140.052 478.664 140.131C477.204 138.821 476.39 140.189 475.55 140.743C474.09 139.434 473.583 141.113 472.744 141.668C471.283 140.358 470.777 142.037 469.937 142.591C468.477 141.282 467.971 142.961 467.131 143.516C465.671 142.206 465.165 143.885 463.903 144.856C464.044 144.717 464.184 144.579 464.325 144.44C463.993 144.272 463.788 144.178 463.428 144.094C462.342 144.231 463.036 145.383 464.325 144.44C465.785 145.75 466.291 144.07 467.131 143.516C468.591 144.825 469.098 143.146 469.937 142.591C471.398 143.901 471.904 142.222 472.744 141.668C474.204 142.977 474.71 141.298 475.55 140.743C477.038 142.081 477.582 140.44 479.843 139.582ZM247.244 376.134C250.559 372.859 253.874 369.584 257.189 366.309C262.604 361.62 260.63 360.915 256.42 356.596C238.261 367.378 220.869 390.68 205.457 407.557C193.601 421.966 178.495 436.231 169.761 452.675C147.291 485.166 124.178 522.062 112.309 559.328C128.34 530.996 144.221 500.208 164.844 474.165C182.948 447.088 204.309 420.78 227.715 397.273M279.195 355.658C276.12 360.018 268.918 361.381 273.007 366.7C272.749 367.395 271.643 366.275 271.35 367.721C274.541 376.458 301.364 344.384 307.633 340.503C323.639 328.049 340.546 315.775 356.75 303.071C436.167 249.334 528.516 205.654 626.027 204.006C539.912 176.452 395.581 263.711 327.251 315.578M558.714 669.687C536.608 691.195 513.386 713.372 488.327 729.98C482.789 735.725 475.189 738.876 469.735 744.649C400.389 789.787 307.42 835.294 221.806 829.401C188.627 827.117 156.614 817.176 127.391 796.383C123.163 796.542 121.559 790.367 118.316 789.332C115.846 788.91 116.371 785.733 114.367 785.84C111.056 786.029 112.948 782.492 111.121 781.655C109.654 781.012 109.399 778.957 107.198 779.37C13.5832 656.452 103.908 486.876 188.753 384.016C202.933 368.027 217.028 351.166 232.67 336.32C234.127 335.21 234.638 334.378 233.069 332.846C204.357 301.759 211.913 309.071 183.979 337.602C78.1238 452.74 -44.9443 657.667 52.708 809.789C165.025 947.425 380.738 855.106 499.206 765.435C557.55 724.643 608.68 670.313 653.521 614.841C659.6 605.093 666.518 596.811 673.368 587.843C745.174 479.257 818.031 320.769 737.774 199.573C714.431 162.907 671.464 142.001 629.176 133.133C600.397 127.544 565.955 127.799 536.79 132.609C530.679 134.627 539.286 139.35 536.267 143.598C535.491 146.072 539.907 144.587 539.822 147.479C541.192 152.181 535.626 147.671 536.085 151.787C534.797 155.26 529.896 146.702 532.227 144.509C533.046 143.26 532.022 142.336 530.716 142.306C526.461 142.325 529.02 133.005 524.783 133.998C499.057 139.815 473.006 145.248 448.46 155.183C372.938 181.844 305.8 227.894 245.025 277.913C242.326 283.497 203.957 310.401 213.812 309.363C216.501 307.422 217.818 310.046 219.25 311.383C221.696 311.444 217.078 317.783 220.81 317.234C224.36 315.489 225.898 318.002 228.153 320.453C228.4 320.759 229.372 321.967 228.011 321.826C224.645 321.903 227.635 326.278 229.128 324.418C231.325 321.753 235.839 326.885 234.111 329.968C234.332 338.282 250.991 316.711 255.226 315.885C273.838 296.234 297.521 282.11 318.082 264.882C424.739 190.621 621.207 117.65 702.726 259.453C713.748 283.534 719.592 308.414 721.27 333.538C727.654 429.119 673.928 528.423 617.978 603.135C605.013 619.905 590.091 636.435 575.767 652.841M334.52 429.139C335.798 426.611 328.66 425.847 330.817 429.717C340.373 422.644 261.252 506.912 248.7 526.853C193.191 605.634 145.986 696.811 141.305 794.959C156.679 814.287 197.639 819.9 222.231 821.588C391.366 823.609 537.258 701.912 631.996 572.654C631.698 569.206 636.793 568.799 636.356 565.267C682.323 497.73 716.947 417.025 714.324 334.24C711.81 311.016 708.083 262.965 685.684 253.495C654.284 256.66 622.753 260.874 592.399 270.492C516.913 293.538 447.69 334.723 386.372 383.461C369.075 396.97 352.461 411.956 336.207 426.856C332.848 428.963 339.559 430.531 336.646 432.583C333.924 437.694 332.11 430.408 329.212 433.767C306.265 455.829 259.184 510.606 334.52 429.139ZM525.313 52.7743C523.131 51.3519 521.416 52.6503 522.168 55.2655C523.556 55.5462 527.126 54.9466 525.313 52.7743ZM267.462 361.705C268.58 358.454 262.156 358.527 263.815 362.228C264.985 362.008 266.476 362.899 267.462 361.705ZM282.245 376.671C283.363 373.419 276.94 373.492 278.598 377.193C279.796 377.001 281.287 377.892 282.245 376.671ZM293.527 389.551C292.916 392.136 294.592 393.327 296.804 391.858C298.635 389.553 295.086 389.387 293.527 389.551ZM308.534 404.912C308.525 405.801 308.482 406.601 308.473 407.436C313.356 408.502 313.333 403.364 308.534 404.912ZM530.385 122.304C531.648 121.166 530.154 119.936 528.986 119.989C529.03 121.102 528.424 123.69 530.385 122.304ZM62.7311 504.195C62.734 503.917 62.7579 503.773 62.7602 503.55C62.2024 503.716 61.5906 503.715 61.8051 504.494C62.1118 504.411 62.4244 504.278 62.7311 504.195ZM402.383 169.283C402.105 169.283 401.961 169.305 401.738 169.305C401.899 169.861 401.881 170.461 402.662 170.24C402.554 169.906 402.464 169.589 402.383 169.283ZM405.5 167.437C405.269 168.215 405.842 168.176 406.424 168.372C406.654 167.594 406.054 167.605 405.5 167.437ZM48.1797 534.587C47.8747 534.503 47.5591 534.408 47.2266 534.296C46.9961 535.074 47.5686 535.036 48.1506 535.231C48.1529 535.009 48.1774 534.809 48.1797 534.587ZM429.973 157.429C429.668 157.345 429.353 157.25 429.02 157.139C428.79 157.917 429.362 157.878 429.944 158.074C429.947 157.851 429.971 157.652 429.973 157.429ZM46.4356 537.542C46.4327 537.82 46.4087 537.964 46.4065 538.186C46.9643 538.021 47.5764 538.022 47.3619 537.243C47.0271 537.353 46.7423 537.459 46.4356 537.542ZM44.6335 541.786C44.9116 541.786 45.0562 541.764 45.2786 541.765C45.1175 541.208 45.1356 540.608 44.3547 540.829C44.4625 541.163 44.5532 541.48 44.6335 541.786ZM436.569 154.609C436.264 154.525 435.949 154.431 435.616 154.319C435.386 155.097 435.958 155.059 436.54 155.254C436.542 155.032 436.566 154.888 436.569 154.609ZM43.536 544.102C43.5331 544.38 43.5092 544.525 43.5069 544.747C44.0647 544.581 44.6765 544.582 44.462 543.803C44.1553 543.886 43.8708 543.992 43.536 544.102ZM439.376 153.685C439.071 153.601 438.755 153.507 438.422 153.395C438.192 154.173 438.764 154.135 439.346 154.33C439.349 154.108 439.373 153.908 439.376 153.685ZM42.3811 547.091C42.6861 547.175 43.0016 547.27 43.3342 547.382C43.5647 546.604 42.9921 546.642 42.4102 546.446C42.4079 546.669 42.3558 546.841 42.3811 547.091ZM442.322 153.239C442.324 152.961 442.348 152.817 442.351 152.595C441.793 152.76 441.181 152.759 441.395 153.538C441.702 153.456 442.015 153.322 442.322 153.239ZM444.989 151.22C445.294 151.304 445.61 151.399 445.942 151.511C446.173 150.733 445.6 150.771 445.018 150.575C445.016 150.798 445.019 150.97 444.989 151.22ZM39.4808 553.652C39.7858 553.736 40.1014 553.831 40.4339 553.943C40.6644 553.165 40.0919 553.203 39.5099 553.008C39.5357 553.202 39.5112 553.402 39.4808 553.652ZM448.889 150.448C448.892 150.17 448.916 150.026 448.918 149.803C448.36 149.969 447.749 149.967 447.963 150.746C448.298 150.636 448.582 150.531 448.889 150.448ZM39.5052 556.092C39.2002 556.008 38.8846 555.914 38.5521 555.802C38.3216 556.58 38.8941 556.541 39.4761 556.737C39.4784 556.515 39.4748 556.343 39.5052 556.092ZM451.723 149.496C451.726 149.218 451.75 149.074 451.753 148.851C451.195 149.017 450.583 149.016 450.797 149.795C451.104 149.712 451.417 149.579 451.723 149.496ZM38.5185 558.915C38.2135 558.831 37.898 558.736 37.5654 558.625C37.3349 559.403 37.9074 559.364 38.4894 559.56C38.5192 559.365 38.5437 559.165 38.5185 558.915ZM482.929 138.998C482.624 138.914 482.309 138.819 481.976 138.707C481.746 139.486 482.318 139.447 482.9 139.643C482.902 139.42 482.899 139.248 482.929 138.998ZM107.808 567.471C107.777 567.721 108.089 568.205 108.087 568.427C108.645 568.261 109.257 568.262 109.042 567.483C108.735 567.566 108.115 567.388 107.808 567.471ZM537.997 198.564C537.719 198.563 537.574 198.585 537.352 198.585C537.513 199.141 537.495 199.741 538.276 199.52C538.168 199.186 538.077 198.87 537.997 198.564Z" fill="black"/>
</svg>
