<svg width="766" height="780" viewBox="0 0 766 780" fill="none" xmlns="http://www.w3.org/2000/svg">
<path d="M663.018 142.493C663.628 143.167 664.27 143.199 664.917 142.505C665.527 143.178 666.169 143.21 666.815 142.516C667.425 143.19 668.067 143.222 668.713 142.528C669.323 143.201 669.965 143.233 672.01 142.213C671.397 141.874 669.831 142.367 671.028 142.905C671.893 143.05 672.901 142.441 670.584 142.511C669.974 141.837 669.332 141.806 668.686 142.5C668.075 141.826 667.433 141.794 666.787 142.488C666.177 141.814 665.535 141.782 664.889 142.476M607.665 112.984C608.275 113.658 608.917 113.69 609.563 112.995C610.173 113.669 610.816 113.701 611.462 113.007C612.072 113.681 612.714 113.712 614.758 112.692C614.146 112.353 612.58 112.846 613.777 113.384C614.641 113.528 615.65 112.92 613.332 112.99C612.722 112.316 612.08 112.285 611.434 112.979C610.824 112.305 610.182 112.273 609.535 112.967C608.897 112.321 608.283 112.318 607.665 112.984ZM272.861 279.261C272.769 280.573 273.806 279.936 274.197 279.939C278.023 279.766 278.163 279.628 280.022 281.621C288.896 282.289 295.301 266.414 304.398 262.532C387.364 190.164 489.92 133.073 599.116 113.881C519.672 116.166 442.473 153.699 376.938 196.745C373.227 196.36 372.443 201.465 368.76 201.107M272.625 290.483C277.204 285.96 277.147 286.015 272.318 281.24C253.001 290.001 236.537 316.369 220.133 332.799C152.758 412.576 88.7348 510.521 82.9759 618.226C97.3002 548.515 124.405 479.941 165.356 420.777C180.982 394.403 199.29 367.712 221.427 345.063M72.8565 583.322C72.1828 583.932 72.1506 584.574 72.8447 585.221C72.171 585.831 72.1393 586.473 73.2496 587.54C73.1108 587.4 72.9722 587.26 72.8335 587.119C72.6639 587.453 72.4665 587.759 72.3806 588.121C72.5136 589.211 73.7749 588.409 72.8335 587.119C73.5072 586.509 73.5388 585.867 72.8447 585.221C73.5465 584.583 73.5506 583.968 72.8565 583.322ZM194.72 324.772C138.349 394.565 70.8956 487.185 72.8956 581.452C89.7487 499.806 127.748 420.913 180.042 355.814C202.898 325.017 228.888 293.178 258.857 268.064C256.217 266.01 253.801 259.239 250.423 263.798C241.101 272.62 232.475 281.753 224.43 291.588M64.403 582.35C63.7292 582.96 63.6971 583.602 64.3912 584.248C63.7174 584.859 63.6858 585.5 64.3799 586.147C63.2521 587.983 63.6892 589.549 65.3007 590.843C64.627 591.453 64.5953 592.095 65.7056 593.162C65.5668 593.022 65.428 592.882 65.2893 592.741C65.1198 593.075 64.9225 593.381 64.8366 593.744C64.9696 594.833 66.2308 594.031 65.2893 592.741C65.963 592.131 65.9948 591.489 65.3007 590.843C66.4286 589.007 65.9914 587.441 64.3799 586.147C65.0536 585.537 65.0853 584.895 64.3912 584.248C65.0653 583.582 65.0693 582.968 64.403 582.35ZM223.912 252.526C227.254 249.336 230.401 245.948 233.576 242.589C222.84 222.06 209.205 256.179 198.247 263.064C179.252 283.219 162.503 305.928 145.927 327.745C145.909 330.76 142.217 331.743 141.924 334.03C141.485 337.406 137.154 338.078 137.607 341.626C92.4919 410.677 53.469 497.298 64.442 580.479C66.903 477.975 115.88 379.744 180.417 302.993M573.943 84.5263C574.553 85.2 575.195 85.232 575.841 84.5379C576.703 85.1294 577.167 86.8352 580.081 85.1776C578.326 84.5249 578.37 86.4795 580.049 85.7638C580.105 85.7641 580.08 85.4007 578.655 85.4759C577.793 84.8844 577.329 83.1788 575.841 84.5379C575.175 83.8638 574.561 83.86 573.943 84.5263C573.332 83.8525 572.691 83.8207 572.044 84.5148C571.434 83.8411 570.792 83.8091 570.146 84.5032C569.536 83.8295 568.894 83.798 568.247 84.4921C440.36 68.9235 317.022 150.708 228.002 231.667C227.77 233.174 227.979 235.576 229.689 234.441C234.364 232.264 234.978 236.986 238.731 239.717C237.79 238.315 236.498 239.647 235.439 239.306C233.652 243.958 242.288 242.363 237.787 238.762C269.059 210.529 302.171 182.809 337.315 160.742C405.736 115.898 485.577 84.803 568.219 84.4639C568.83 85.1377 569.472 85.1693 570.118 84.4753C570.728 85.149 571.37 85.1808 572.017 84.4867C572.654 85.1885 573.296 85.2204 573.943 84.5263ZM518.312 96.4194C517.702 95.7457 517.06 95.7138 516.413 96.4079C514.942 95.0868 514.429 96.7588 513.111 97.7839C446.093 104.387 374.339 146.252 318.281 187.318C292.018 204.441 268.683 226.552 244.244 246.758C241.707 246.156 242.738 251.076 244.786 249.553C250.134 246.989 251.526 256.936 256.536 250.21C265.25 240.435 276.264 233.494 285.032 223.999C307.524 207.271 329.826 189.565 353.349 173.318C356.891 173.926 357.508 168.765 361.05 169.373C407.756 137.436 460.576 114.777 513.616 97.3403C515.087 98.6614 515.6 96.9893 516.441 96.436C517.051 97.1097 517.666 97.1135 518.312 96.4194C519.784 97.7405 520.296 96.0685 522.535 95.1885C521.923 94.8498 520.356 95.3427 521.554 95.8804C522.418 96.0252 523.427 95.4171 521.109 95.4869C519.638 94.1658 519.153 95.8661 518.312 96.4194ZM478.222 31.2377C479.694 32.5588 480.207 30.8865 481.048 30.3332C482.883 31.461 484.45 31.0238 511.272 23.0611C503.34 23.5158 493.108 25.8551 485.771 29.4403C493.788 28.7907 504.073 27.0661 511.656 24.1803C511.797 23.9857 511.437 23.4529 485.771 29.4403C483.935 28.3125 482.369 28.7498 481.075 30.3613C479.576 28.9563 479.091 30.6567 478.222 31.2377C476.75 29.9166 476.238 31.5884 475.397 32.1417C473.925 30.8206 473.413 32.493 472.15 33.4625C472.291 33.3238 472.431 33.185 472.572 33.0462C472.238 32.8767 471.932 32.6793 471.569 32.5934C470.48 32.7264 471.282 33.9877 472.572 33.0462C474.043 34.3673 474.556 32.695 475.397 32.1417C476.841 33.4905 477.353 31.8188 478.222 31.2377ZM10.2948 499.16C11.8941 497.857 12.3779 496.324 11.2723 494.475C11.8638 493.613 13.5698 493.149 12.2108 491.661C12.8023 490.799 14.5078 490.335 13.1488 488.847C14.7538 486.595 16.3311 484.315 15.0928 481.32C15.6844 480.458 17.3901 479.994 16.031 478.506C16.6225 477.644 18.3284 477.18 16.9694 475.692C17.5609 474.83 19.267 474.365 17.9079 472.878C18.4994 472.016 20.205 471.551 18.8459 470.064C19.4374 469.202 21.1435 468.737 19.7845 467.249C20.376 466.387 22.0819 465.923 20.7228 464.435C21.3143 463.573 23.0201 463.109 21.3625 460.195C20.7098 461.95 22.6644 461.906 21.9487 460.227C21.949 460.171 21.5856 460.197 21.6608 461.621C21.0693 462.483 19.3637 462.947 20.7228 464.435C20.1313 465.297 18.4254 465.761 19.7845 467.249C19.193 468.111 17.4869 468.576 18.8459 470.064C18.2544 470.925 16.5489 471.39 17.9079 472.878C17.3164 473.74 15.6103 474.204 16.9694 475.692C16.3779 476.554 14.672 477.018 16.031 478.506C15.4395 479.368 13.7338 479.832 15.0928 481.32C13.4879 483.572 11.9105 485.852 13.1488 488.847C12.5573 489.709 10.8517 490.173 12.2108 491.661C11.6193 492.523 9.9132 492.987 11.2723 494.475M466.42 34.6284C465.808 34.2897 464.241 34.7825 465.439 35.3202C466.303 35.465 467.312 34.857 464.994 34.9268C463.523 33.6057 463.01 35.2778 462.169 35.8311C460.697 34.51 460.185 36.1823 459.344 36.7356C457.872 35.4145 457.359 37.0863 456.518 37.6396C455.047 36.3185 454.534 37.9908 453.693 38.5441C452.221 37.223 451.709 38.8949 450.447 39.8644C450.587 39.7257 450.727 39.5872 450.868 39.4484C450.534 39.2789 450.228 39.0815 449.865 38.9956C448.776 39.1286 449.578 40.3899 450.868 39.4484C452.339 40.7695 452.852 39.0974 453.693 38.5441C455.165 39.8651 455.678 38.1929 456.518 37.6396C457.99 38.9607 458.503 37.2889 459.344 36.7356C460.815 38.0566 461.328 36.3844 462.169 35.8311C463.668 37.1803 464.153 35.4802 466.42 34.6284ZM233.684 270.956C236.998 267.681 240.313 264.407 243.627 261.132C249.044 256.447 247.093 255.765 242.848 251.412C224.664 262.163 207.408 285.595 192.006 302.476C180.165 316.895 164.92 331.014 156.222 347.489C133.802 380.02 110.852 417.07 99.0961 454.438C115.07 426.057 130.835 395.162 151.429 369.098C169.488 341.986 190.865 315.703 214.264 292.197M265.691 250.545C262.622 254.909 255.605 256.458 259.732 261.816C259.477 262.512 258.145 261.164 257.857 262.614C261.098 271.4 287.926 239.344 294.204 235.473C310.22 223.034 327.158 210.796 343.371 198.107C422.873 144.479 515.464 101.065 613.356 99.8125C526.78 71.7899 382.221 158.779 313.842 210.576M547.747 567.09C525.645 588.594 502.394 610.734 477.307 627.306C471.772 633.052 464.159 636.188 458.708 641.963C362.373 704.451 220.637 767.726 115.277 692.546C111.032 692.688 109.533 686.621 106.273 685.568C103.791 685.134 104.229 681.871 102.219 681.97C98.8952 682.146 100.87 678.695 99.0329 677.847C97.5571 677.196 97.0127 674.847 94.8046 675.253C0.291351 551.447 90.35 381.656 175.091 278.727C189.259 262.731 203.459 245.981 219.099 231.139C220.558 230.031 220.955 229.084 219.372 227.539C190.414 196.207 198.186 203.736 170.262 232.268C64.4795 347.439 -58.2066 552.686 40.4851 705.831C153.838 844.492 369.956 752.629 488.51 663.082C546.911 622.365 598.024 568.036 642.806 512.523C648.867 502.76 655.758 494.454 662.596 485.477C734.222 376.746 806.487 217.707 725.393 95.6862C701.8 58.7743 658.819 37.8548 616.325 28.776C587.408 23.0456 552.676 23.0039 523.417 27.7132C517.29 29.7143 526 34.5408 522.987 38.7942C522.218 41.2744 526.722 39.878 526.648 42.7812C528.044 47.5079 522.32 42.8388 522.798 46.9738C521.52 50.4559 516.547 41.8267 518.878 39.6351C519.695 38.3837 518.806 37.5966 517.494 37.5608C513.223 37.563 515.625 28.0852 511.375 29.0646C485.571 34.7999 459.574 40.2823 434.973 50.1569C359.264 76.6142 291.898 122.414 231.096 172.386C229.142 176.456 208.404 191.891 201.048 199.618C198.291 202.514 197.414 204.328 200.11 204.055C202.802 202.117 203.877 204.496 205.32 205.845C207.777 205.916 203.132 212.225 206.876 211.689C210.433 209.952 212.286 212.783 214.561 215.254C214.81 215.562 215.558 216.544 214.191 216.396C210.812 216.459 213.995 221.029 215.486 219.168C217.68 216.501 222.172 221.609 220.45 224.698C220.707 233.047 237.449 211.567 241.697 210.755C260.298 191.1 283.92 176.92 304.488 159.706C411.252 85.5828 608.211 13.1481 690.661 155.866C744.318 272.249 677.648 406.222 607.113 500.666C594.169 517.451 579.106 533.832 564.796 550.246M294.52 280.117C292.686 283.317 284.375 286.645 288.375 289.964C287.407 293.085 287.409 297.412 291.784 294.033C318.081 266.83 348.61 246.047 378.509 223.278C461.337 169.084 561.286 123.118 662.754 130.654C661.718 108.089 603.53 122.731 586.153 124.636C476.135 145.805 376.684 206.432 294.52 280.117ZM253.956 256.588C255.065 253.328 248.754 253.514 250.435 257.237C251.609 257.021 252.972 257.783 253.956 256.588ZM268.914 271.727C270.022 268.467 263.711 268.652 265.392 272.376C266.593 272.188 267.957 272.95 268.914 271.727ZM280.255 284.666C279.653 287.259 281.459 288.582 283.674 287.115C285.502 284.809 281.819 284.508 280.255 284.666ZM295.349 300.112C295.344 301.006 295.339 301.844 295.334 302.681C300.241 303.772 300.161 298.578 295.349 300.112ZM516.919 17.3159C518.182 16.1789 516.681 14.9415 515.508 14.9902C515.557 16.1073 514.956 18.7001 516.919 17.3159ZM49.0373 398.828C49.039 398.549 49.04 398.382 49.0414 398.158C48.482 398.323 47.8679 398.319 48.0866 399.102C48.3942 399.02 48.7297 398.91 49.0373 398.828ZM388.767 64.1172C388.487 64.1155 388.32 64.1145 388.096 64.1132C388.261 64.6725 388.257 65.2866 389.04 65.068C388.93 64.7323 388.848 64.4248 388.767 64.1172ZM391.877 62.2652C391.649 63.0456 392.235 63.0213 392.82 63.2203C393.048 62.4399 392.434 62.4361 391.877 62.2652ZM34.7259 429.453C34.4193 429.367 34.1126 429.282 33.7783 429.168C33.5502 429.948 34.1367 429.924 34.7218 430.123C34.7232 429.9 34.7245 429.676 34.7259 429.453ZM416.422 52.3347C416.115 52.2491 415.808 52.1634 415.474 52.0497C415.246 52.8301 415.832 52.8058 416.417 53.0047C416.419 52.7814 416.42 52.558 416.422 52.3347ZM32.8103 432.234C32.8086 432.513 32.8076 432.68 32.8063 432.904C33.3656 432.739 33.9801 432.743 33.7615 431.96C33.4258 432.069 33.1179 432.152 32.8103 432.234ZM31.1923 436.663C31.4715 436.664 31.639 436.666 31.8623 436.667C31.6982 436.107 31.702 435.493 30.9189 435.712C31.0286 436.048 31.1104 436.355 31.1923 436.663ZM423.028 49.5266C422.721 49.441 422.414 49.3554 422.08 49.2417C421.852 50.0221 422.438 49.9976 423.023 50.1966C423.025 49.9732 423.026 49.8058 423.028 49.5266ZM29.9508 438.833C29.9491 439.112 29.9483 439.28 29.9469 439.503C30.5063 439.339 31.1204 439.343 30.9018 438.56C30.5942 438.642 30.2865 438.723 29.9508 438.833ZM425.853 48.6223C425.546 48.5367 425.239 48.4513 424.905 48.3376C424.677 49.118 425.263 49.0937 425.849 49.2926C425.85 49.0693 425.852 48.8456 425.853 48.6223ZM29.0103 442.038C29.3169 442.124 29.6233 442.209 29.9577 442.323C30.1857 441.543 29.5994 441.567 29.0143 441.368C29.0129 441.591 28.9839 441.787 29.0103 442.038ZM428.704 48.081C428.706 47.8018 428.707 47.6344 428.708 47.4111C428.149 47.5752 427.534 47.5717 427.753 48.3548C428.06 48.2729 428.396 48.1629 428.704 48.081ZM431.507 46.1997C431.814 46.2853 432.12 46.3708 432.455 46.4845C432.683 45.7041 432.096 45.7286 431.511 45.5296C431.51 45.753 431.537 45.9486 431.507 46.1997ZM26.1226 448.61C26.4292 448.695 26.7359 448.781 27.0702 448.895C27.2983 448.114 26.7118 448.139 26.1267 447.94C26.1534 448.135 26.1521 448.359 26.1226 448.61ZM435.281 45.301C435.283 45.0218 435.284 44.8544 435.285 44.631C434.726 44.7952 434.112 44.7913 434.331 45.5744C434.666 45.4647 434.974 45.3829 435.281 45.301ZM26.1361 451.039C25.8295 450.953 25.523 450.867 25.1887 450.754C24.9606 451.534 25.5469 451.51 26.132 451.709C26.1334 451.485 26.1067 451.29 26.1361 451.039ZM438.135 44.3689C438.137 44.0897 438.138 43.9223 438.139 43.6989C437.58 43.8631 436.966 43.8592 437.184 44.6423C437.492 44.5604 437.827 44.4508 438.135 44.3689ZM25.1418 453.853C24.8352 453.767 24.5286 453.681 24.1942 453.568C23.9662 454.348 24.5527 454.324 25.1378 454.523C25.1669 454.327 25.1682 454.104 25.1418 453.853ZM469.273 33.808C468.966 33.7223 468.659 33.6366 468.325 33.5229C468.097 34.3033 468.684 34.279 469.269 34.4779C469.27 34.2546 469.243 34.059 469.273 33.808ZM94.7742 462.76C94.7448 463.011 94.7715 463.207 94.7701 463.43C95.3295 463.266 95.944 463.269 95.7253 462.486C95.4177 462.568 95.0818 462.678 94.7742 462.76ZM525.11 94.1432C524.831 94.1415 524.663 94.1404 524.44 94.1391C524.604 94.6985 524.6 95.3126 525.383 95.0939C525.274 94.7582 525.192 94.4508 525.11 94.1432Z" fill="url(#paint0_linear_2884_3961)"/>
<path d="M115.515 659.727C115.188 653.695 115.308 601.242 127.217 565.228L148.867 567.227C137.349 598.001 123.515 651.227 122.015 659.727C120.515 668.227 117.017 680.727 117.017 680.727C117.017 680.727 115.842 665.759 115.515 659.727Z" fill="url(#paint1_linear_2884_3961)"/>
<defs>
<linearGradient id="paint0_linear_2884_3961" x1="77.9668" y1="198.027" x2="444.308" y2="555.734" gradientUnits="userSpaceOnUse">
<stop stop-color="#FABDCA"/>
<stop offset="1" stop-color="#FFB5D9"/>
</linearGradient>
<linearGradient id="paint1_linear_2884_3961" x1="26.3281" y1="566.228" x2="452.828" y2="679.228" gradientUnits="userSpaceOnUse">
<stop stop-color="#FABDCA"/>
<stop offset="1" stop-color="#FFB5D9"/>
</linearGradient>
</defs>
</svg>
