<svg width="849" height="1079" viewBox="0 0 849 1079" fill="none" xmlns="http://www.w3.org/2000/svg">
<path d="M355.958 955.205C364.039 975.333 367.314 1000.6 365.147 1022.87C358.609 1020.62 359.69 1028.86 365.413 1024.99C367.174 1030.1 358.182 1032.49 363.323 1034.29C366.626 1034.23 365.599 1037.21 365.312 1037.44C360.781 1043.35 365.6 1051.26 361.136 1057.67C358.904 1055.96 354.312 1059.3 358.135 1060.77C362.266 1060 359.976 1062.52 360.467 1064.3C361.095 1066.63 354.594 1066.15 359.123 1069.34C357.866 1071.86 359.283 1078.22 355.626 1078.01C355.755 1073.95 348.758 1077.35 349.661 1072.65C349.933 1071.34 351.136 1070.24 352.923 1070.04C354.71 1069.83 353.317 1068.54 353.405 1067.76C353.675 1065.72 351.094 1067.85 351.26 1066.46C353.957 1061.84 353.799 1056.21 355.22 1050.61C354.471 1051.44 355.847 1051.6 356.193 1051.81C362.619 1054.43 359.294 1044.86 355.22 1050.61C354.578 1047.93 354.223 1044.96 358.056 1043.63C359.973 1042.96 358.048 1041.54 358.467 1040.63C356.764 1040.5 356.358 1040.36 356.712 1037.99C358.626 1027.71 357.005 1017.82 358.162 1007.35C357.413 1008.18 358.789 1008.34 359.135 1008.55C365.561 1011.17 362.236 1001.6 358.162 1007.35C356.036 1005.72 357.449 1003.55 357.594 1001.52C357.712 999.535 359.455 1000.53 360.357 1000.38C362.411 1000.27 361.808 996.436 359.786 997.021C356.143 999.793 354.946 990.897 358.648 991.936C360.112 991.933 360.554 991.429 360.303 989.776C359.567 986.627 355.121 991.087 355.355 986.378C354.019 981.59 359.274 985.167 359.36 981.973C359.142 980.57 359.008 979.793 357.404 980.419C353.746 982.111 352.802 973.69 356.619 974.873C360.315 973.94 357.172 969.958 354.268 973.015C352.017 974.998 351.625 966.888 352.26 964.959C351.511 965.79 352.887 965.944 353.233 966.153C359.659 968.773 356.333 959.202 352.26 964.959C346.842 962.269 348.991 942.731 341.44 944.587C321.126 950.037 299.791 956.447 280.386 959.39C262.869 962.657 243.068 959.96 226.401 965.788C223.985 968.207 220.691 966.526 217.639 966.547C191.037 957.234 159.344 958.853 132.39 946.404C124.172 945.389 115.443 935.105 107.483 938.67C103.167 940.926 98.951 940.337 95.3583 937.247C-190.993 690.968 230.164 48.3146 556.788 5.05973C581.525 1.78372 695.631 -16.3496 781.775 59.4646C785.164 72.2875 798.858 81.263 806.139 95.8317C819.666 114.063 823.834 137.766 836.237 155.923C890.279 387.813 753.415 631.265 590.421 787.998C522.487 854.056 440.901 908.867 351.172 940.919C351.528 940.439 351.954 940.266 351.777 940.13C350.871 938.817 351.494 936.614 349.516 938.975C348.8 940.056 349.542 940.625 351.172 940.919C353.553 942.068 354.425 946.839 351.631 946.89C347.35 952.038 360.595 947.465 354.71 956.834C353.508 958.329 354.22 958.088 355.15 957.902C356.92 957.573 355.179 956.294 355.632 955.63C356.256 952.174 345.547 959.253 355.958 955.205ZM160.172 822.272C159.384 821.612 158.675 821.688 158.06 822.564C157.272 821.905 156.563 821.98 155.948 822.857C155.16 822.197 154.452 822.272 153.836 823.149C153.049 822.489 152.22 822.472 150.09 823.931C150.828 824.216 152.725 823.589 151.301 823.173C150.31 823.144 149.141 823.877 151.724 823.441C152.512 824.101 153.221 824.025 153.836 823.149C154.624 823.808 155.332 823.734 155.948 822.857C156.735 823.516 157.444 823.441 158.06 822.564M591.817 509.411C603.594 493.6 610.765 476 622.135 459.988C672.11 362.695 716.491 250.046 694.754 138.543C694.956 132.629 690.246 131.38 685.765 129.744C684.318 128.917 683.431 126.72 681.681 127.683C683.066 137.397 681.91 148.874 683.559 158.903C674.504 443.42 436.145 749.913 160.199 822.236C285.671 811.783 396.246 732.604 481.611 645.851C501.887 629.808 516.006 606.294 534.716 588.04C536.257 587.423 538.606 585.402 536.033 583.037C535.599 582.649 536.439 582.506 536.656 582.223C538.918 580.079 535.845 580.028 535.292 578.255C537.45 573.897 541.045 583.17 543.766 577.05C557.762 560.691 567.739 541.758 581.531 525.299M226.898 846.878C226.11 846.218 225.402 846.293 224.787 847.17C223.999 846.51 223.29 846.586 222.674 847.462C221.887 846.803 221.059 846.786 218.929 848.244C219.667 848.529 221.563 847.903 220.139 847.486C219.149 847.458 217.979 848.191 220.563 847.755C221.35 848.414 222.059 848.339 222.674 847.462C223.462 848.122 224.171 848.046 224.787 847.17C225.601 847.794 226.31 847.719 226.898 846.878ZM575.896 609.03C575.795 607.548 574.819 608.486 574.381 608.544C570.125 609.328 569.979 609.497 567.589 607.554C557.551 608.178 552.468 626.647 542.888 632.399C461.264 726.232 355.52 806.136 236.267 844.505C324.843 829.662 405.429 775.714 472.098 717.396C476.312 717.254 476.402 711.423 480.581 711.253M735.174 188.449C735.523 187.48 735.784 186.95 734.907 186.334C735.566 185.547 735.517 184.834 734.64 184.218C735.299 183.431 735.25 182.72 734.372 182.104C735.032 181.316 734.721 180.404 733.312 179.381C733.489 179.517 733.928 179.853 734.105 179.989C734.243 179.588 734.374 179.183 734.414 178.764C734.096 177.565 732.851 178.69 734.105 179.989C733.446 180.776 733.495 181.488 734.372 182.104C733.713 182.891 733.762 183.602 734.64 184.218C733.98 185.005 734.029 185.718 734.907 186.334C734.22 187.156 734.296 187.833 735.174 188.449C734.773 189.266 733.633 189.74 733.888 190.948ZM574.293 596.34C569.871 602.11 569.779 601.927 575.928 606.525C596.19 593.731 610.521 561.671 626.33 540.745C689.351 441.03 745.936 321.605 735.641 200.158C730.442 280.402 710.821 361.396 674.176 433.953C660.783 465.889 644.554 498.687 623.294 527.461M752.28 237.574C752.939 236.786 752.89 236.074 752.013 235.458C752.672 234.671 752.758 234.062 751.349 233.039C751.526 233.175 751.568 233.207 751.746 233.343C751.883 232.943 752.015 232.538 752.054 232.119C751.736 230.92 750.491 232.045 751.746 233.343C751.086 234.13 751.135 234.842 752.013 235.458C751.326 236.281 751.402 236.957 752.28 237.574ZM656.286 545.997C708.54 459.159 769.438 344.894 752.547 239.689C746.372 333.682 716.164 427.916 667.744 508.869C646.945 546.875 622.838 586.561 593.194 619.306C596.468 621.196 600.112 628.315 603.185 622.691C612.249 611.374 620.643 599.938 628.119 587.685M761.889 237.351C762.549 236.564 762.5 235.851 761.622 235.235C762.282 234.448 762.232 233.737 761.355 233.121C762.332 230.891 761.609 229.213 759.604 228.014C760.264 227.227 760.349 226.619 758.941 225.595C759.118 225.731 759.16 225.763 759.337 225.899C759.475 225.499 759.606 225.094 759.646 224.675C759.328 223.476 758.083 224.601 759.337 225.899C758.678 226.686 758.727 227.398 759.604 228.014C758.627 230.244 759.35 231.921 761.355 233.121C760.696 233.908 760.745 234.619 761.622 235.235C760.971 236.085 761.047 236.762 761.889 237.351ZM634.885 631.415C631.64 635.503 628.396 639.591 625.364 643.842C640.573 665.161 650.441 624.792 661.637 615.39C679.768 589.893 695.348 562.161 710.512 535.178C710.064 531.8 713.945 530.054 713.917 527.448C713.884 523.602 718.375 521.986 717.317 518.085C757.086 433.818 787.369 330.875 762.156 239.466C775.334 354.581 736.07 472.331 675.755 568.22M268.89 873.378C268.103 872.718 267.394 872.793 266.779 873.67C265.722 873.141 265.244 871.539 262.24 873.844C264.306 874.304 263.911 872.091 262.142 873.151C262.079 873.16 261.895 873.355 263.477 873.051C264.534 873.58 265.324 875.421 266.779 873.67C267.629 874.322 268.302 874.219 268.89 873.378C269.678 874.037 270.387 873.962 271.002 873.085C271.79 873.745 272.498 873.67 273.114 872.793C273.902 873.453 274.61 873.378 275.226 872.501C420.805 870.15 546.452 759.758 633.519 655.373C633.545 653.651 632.996 651.04 631.259 652.574C626.363 655.734 624.893 650.505 620.268 648.029C621.539 649.452 622.819 647.793 624.057 648.011C625.334 642.528 615.859 645.606 621.457 648.94C590.839 685.378 557.964 721.436 522.054 751.571C452.433 812.347 368.081 859.645 275.622 872.805C274.835 872.145 273.73 871.916 273.114 872.793C272.326 872.133 271.618 872.209 271.002 873.085C270.179 872.398 269.506 872.501 268.89 873.378ZM329.577 851.663C330.365 852.323 331.073 852.247 331.689 851.37C333.542 852.622 333.84 850.66 335.157 849.308C409.151 831.553 482.666 773.367 539.035 718.732C565.774 695.504 588.826 667.428 613.043 641.033C615.977 641.314 613.804 635.773 611.749 637.794C606.161 641.491 602.957 630.495 598.394 638.799C590.159 651.088 578.959 660.599 570.62 672.583C548.042 694.785 525.858 718.075 502.052 739.898C497.993 739.765 498.063 745.607 494.004 745.474C446.684 788.445 391.36 822.19 334.696 849.91C332.843 848.659 332.544 850.621 331.689 851.37C330.901 850.711 330.193 850.786 329.577 851.663C327.724 850.412 327.306 852.282 324.936 853.613C325.674 853.898 327.174 852.968 325.75 852.552C324.76 852.523 323.987 853.56 326.57 853.124C328.423 854.375 328.722 852.412 329.577 851.663ZM384.306 918.208C382.453 916.957 382.154 918.919 381.298 919.669C379.068 918.69 377.529 919.534 348.741 932.594C357.549 930.859 368.525 926.569 376.18 921.422C367.307 923.388 356.341 927.124 348.301 931.526C348.174 931.766 348.38 932.092 376.18 921.422C378.41 922.4 380.1 921.673 381.298 919.669C383.195 921.01 383.423 918.993 384.306 918.208C386.158 919.459 386.457 917.497 387.312 916.747C389.165 917.999 389.464 916.036 390.727 914.755C390.591 914.932 390.455 915.11 390.32 915.287C390.72 915.425 391.361 915.804 391.78 915.844C392.979 915.527 391.617 914.033 390.32 915.287C388.467 914.036 388.168 915.998 387.312 916.747C385.487 915.461 385.188 917.423 384.306 918.208ZM835.391 322.1C833.803 323.806 833.505 325.6 835.03 327.499C834.502 328.555 832.649 329.328 834.401 330.783C833.873 331.839 832.021 332.611 833.774 334.066C832.327 336.835 830.906 339.623 832.757 342.784C832.229 343.84 830.377 344.612 832.13 346.067C831.601 347.123 830.145 348.199 831.898 349.654C831.37 350.711 829.517 351.483 831.27 352.938C830.742 353.994 828.889 354.766 830.642 356.221C830.114 357.277 828.261 358.049 830.014 359.505C829.485 360.561 827.633 361.333 829.385 362.788C828.857 363.845 826.699 364.383 829.008 367.388C829.466 365.322 827.278 365.669 828.34 367.438C828.348 367.5 829.063 367.654 828.758 366.072C829.286 365.015 831.138 364.244 829.385 362.788C829.914 361.732 831.766 360.96 830.014 359.505C830.542 358.449 832.394 357.676 830.642 356.221C831.17 355.165 833.022 354.393 831.27 352.938C831.798 351.882 833.65 351.11 831.898 349.654C832.426 348.598 833.882 347.522 832.13 346.067C832.658 345.011 834.51 344.239 832.757 342.784C834.204 340.015 835.625 337.227 833.774 334.066C834.302 333.01 836.154 332.238 834.401 330.783C834.93 329.727 836.782 328.954 835.03 327.499M397.262 912.796C398 913.08 399.5 912.151 398.076 911.734C397.085 911.706 395.916 912.439 398.499 912.002C400.352 913.253 401.048 911.595 401.903 910.845C403.756 912.096 404.055 910.134 404.91 909.384C406.763 910.635 407.062 908.673 407.917 907.924C409.77 909.175 410.069 907.212 410.924 906.463C412.777 907.714 413.076 905.752 414.338 904.471C414.202 904.648 414.067 904.825 413.931 905.002C414.332 905.14 414.576 905.216 414.996 905.256C416.195 904.938 415.229 903.749 413.931 905.002C412.078 903.751 411.779 905.714 410.924 906.463C409.071 905.212 408.772 907.174 407.917 907.924C406.064 906.673 405.766 908.635 404.91 909.384C403.057 908.133 402.758 910.096 401.903 910.845C400.015 909.567 399.667 911.492 397.262 912.796ZM620.77 612.059C617.569 616.237 614.368 620.415 611.167 624.593C605.832 630.675 608.165 631.17 613.594 635.386C632.279 620.541 648.088 591.748 662.705 570.47C673.719 552.5 688.411 534.201 695.587 514.415C715.628 474.536 735.684 429.612 743.036 385.967C729.566 420.205 716.661 457.178 697.659 489.537C681.657 522.677 661.868 555.444 639.329 585.373M588.134 639.871C590.891 634.511 598.77 631.895 593.317 626.536C593.494 625.717 594.919 626.808 595.016 625.14C590.021 615.807 565.019 655.874 558.594 661.177C542.598 677.577 525.56 693.91 509.383 710.621C428.722 782.941 331.901 845.915 222.514 862.454C323.784 880.432 472.048 760.679 540.542 692.128M223.298 329.255C244.697 301.767 267.243 273.359 292.751 250.93C298.053 243.643 306.093 238.958 311.297 231.652C382.017 170.507 479.241 105.388 576.462 99.1101C614.14 96.6773 651.738 103.021 687.943 121.974C692.672 121.159 695.469 127.853 699.283 128.527C702.129 128.629 702.049 132.276 704.285 131.854C707.978 131.144 706.419 135.401 708.608 136.066C710.361 136.567 710.979 138.837 713.387 138.042C838.43 262.003 764.138 466.08 685.275 594.395C671.902 614.49 658.764 635.552 643.562 654.584C642.102 656.049 641.662 657.061 643.673 658.546C680.96 689.138 671.287 682.064 698.11 645.809C798.623 500.538 904.05 251.822 769.768 95.666C621.327 -42.0093 393.607 94.1792 274.814 212.745C215.768 267.351 167.011 336.079 125.51 405.14C120.242 417.005 113.795 427.349 107.535 438.454C44.2558 571.236 -12.1779 760.227 97.5673 884.267C129.714 921.935 181.394 938.945 230.374 942.535C263.635 944.477 302.325 939.003 334.347 929.207C340.893 926.019 330.455 922.012 333.167 916.785C333.642 913.89 328.914 916.222 328.545 912.962C326.249 907.887 333.232 912.114 332.055 907.56C332.944 903.464 339.832 912.339 337.564 915.153C336.844 916.68 338.143 917.563 339.617 917.4C344.399 916.737 343.02 927.592 347.625 925.838C375.619 915.428 404.039 905.402 430.043 890.545C510.68 849.223 578.769 787.385 639.065 722.049C641.202 715.37 680.02 679.371 669.105 682.021C666.393 684.607 664.491 681.858 662.665 680.571C659.904 680.872 664.077 673.056 659.969 674.234C656.258 676.729 654.124 674.139 651.194 671.725C650.867 671.418 649.58 670.208 651.133 670.162C654.906 669.569 650.839 665.104 649.46 667.419C647.418 670.743 641.516 665.659 642.964 661.935C641.378 652.629 626.115 679.368 621.485 680.934C603.717 705.81 579.357 725.241 559.008 747.69C451.017 847.168 241.825 958.726 127.347 811.73C111.079 786.342 100.505 759.277 94.5769 731.309C72.0229 624.912 116.463 505.28 167.362 412.934C179.243 392.144 193.364 371.33 206.832 350.745M514.1 565.67C513.071 568.702 521.219 568.484 518.172 564.463C508.564 573.847 583.98 467.277 594.887 442.988C644.635 346.139 683.05 236.616 672.526 125.669C652.13 106.276 605.167 106.141 577.24 107.95C386.722 131.158 242.242 289.827 156.501 449.282C157.391 453.111 151.727 454.335 152.786 458.237C111.96 541.02 86.0079 636.885 102.275 729.475C108.837 755.181 120.758 808.592 147.469 815.854C182.27 807.569 217.048 798.087 249.635 782.711C330.811 745.455 402.028 688.768 463.141 624.787C480.418 607.009 496.69 587.673 512.571 568.488C516.009 565.616 508.21 564.866 511.156 562.122C513.395 555.971 516.606 563.882 519.326 559.672C541.58 531.435 585.712 462.816 514.1 565.67ZM360.094 1017.15C362.777 1018.42 364.497 1016.7 363.231 1013.88C361.625 1013.77 357.706 1014.98 360.094 1017.15ZM600.356 631.311C599.621 635.131 606.833 634.082 604.373 630.175C603.092 630.598 601.272 629.822 600.356 631.311ZM581.324 616.729C580.59 620.549 587.801 619.5 585.341 615.592C584.025 615.989 582.205 615.212 581.324 616.729ZM566.566 603.961C566.837 600.965 564.761 599.88 562.51 601.863C560.821 604.728 564.839 604.379 566.566 603.961ZM547.22 588.968C547.087 587.967 547.006 587.062 546.882 586.124C541.219 585.662 542.072 591.43 547.22 588.968ZM343.207 939.817C341.97 941.285 343.847 942.442 345.152 942.206C344.924 940.963 345.189 937.964 343.207 939.817ZM807.655 440.424C807.697 440.737 807.693 440.903 807.726 441.153C808.327 440.883 809.015 440.792 808.649 439.949C808.317 440.088 807.987 440.285 807.655 440.424ZM479.588 867.767C479.901 867.725 480.06 867.679 480.31 867.646C480.04 867.045 479.964 866.369 479.121 866.734C479.296 867.093 479.449 867.435 479.588 867.767ZM476.381 870.31C476.515 869.402 475.877 869.531 475.192 869.399C475.058 870.308 475.731 870.205 476.381 870.31ZM819.13 404.096C819.486 404.145 819.856 404.203 820.248 404.279C820.382 403.37 819.745 403.5 819.059 403.367C819.092 403.618 819.097 403.846 819.13 404.096ZM450.47 885.238C450.827 885.286 451.197 885.345 451.589 885.421C451.723 884.512 451.085 884.641 450.399 884.509C450.432 884.759 450.437 884.988 450.47 885.238ZM820.616 400.514C820.574 400.201 820.578 400.036 820.545 399.786C819.944 400.056 819.256 400.147 819.622 400.99C819.981 400.815 820.284 400.653 820.616 400.514ZM821.959 395.475C821.647 395.517 821.488 395.564 821.237 395.597C821.508 396.197 821.584 396.874 822.427 396.508C822.252 396.149 822.099 395.807 821.959 395.475ZM443.507 889.398C443.863 889.447 444.233 889.506 444.625 889.581C444.759 888.673 444.121 888.802 443.436 888.67C443.469 888.92 443.465 889.086 443.507 889.398ZM822.821 392.709C822.779 392.396 822.783 392.23 822.75 391.98C822.149 392.25 821.461 392.341 821.828 393.184C822.159 393.044 822.462 392.883 822.821 392.709ZM440.499 890.859C440.856 890.908 441.226 890.966 441.618 891.042C441.752 890.133 441.115 890.263 440.429 890.13C440.462 890.381 440.466 890.609 440.499 890.859ZM823.639 389.177C823.282 389.129 822.912 389.07 822.52 388.994C822.386 389.903 823.024 389.774 823.71 389.906C823.677 389.656 823.708 389.455 823.639 389.177ZM437.259 891.804C437.3 892.117 437.296 892.282 437.33 892.533C437.93 892.262 438.619 892.171 438.252 891.328C437.921 891.468 437.59 891.665 437.259 891.804ZM434.584 894.474C434.227 894.425 433.857 894.366 433.465 894.291C433.331 895.2 433.969 895.07 434.655 895.202C434.621 894.952 434.59 894.759 434.584 894.474ZM825.845 381.371C825.488 381.322 825.118 381.264 824.726 381.188C824.592 382.097 825.23 381.967 825.916 382.099C825.855 381.885 825.851 381.656 825.845 381.371ZM430.323 895.929C430.364 896.241 430.36 896.407 430.394 896.657C430.994 896.387 431.682 896.297 431.316 895.454C430.957 895.629 430.654 895.789 430.323 895.929ZM825.425 378.634C825.781 378.682 826.151 378.741 826.543 378.816C826.677 377.908 826.04 378.037 825.354 377.905C825.387 378.155 825.419 378.348 825.425 378.634ZM427.288 897.425C427.33 897.738 427.326 897.903 427.359 898.154C427.96 897.883 428.648 897.793 428.281 896.95C427.95 897.089 427.62 897.286 427.288 897.425ZM826.08 375.315C826.437 375.363 826.807 375.422 827.199 375.497C827.333 374.589 826.695 374.718 826.009 374.586C826.007 374.809 826.012 375.037 826.08 375.315ZM393.886 913.917C394.242 913.966 394.612 914.024 395.004 914.1C395.138 913.191 394.501 913.321 393.815 913.189C393.848 913.439 393.88 913.632 393.886 913.917ZM746.788 376.143C746.782 375.857 746.354 375.36 746.32 375.11C745.72 375.38 745.031 375.472 745.398 376.314C745.729 376.175 746.456 376.282 746.788 376.143ZM322.38 855.307C322.693 855.266 322.852 855.219 323.102 855.186C322.831 854.585 322.755 853.909 321.913 854.275C322.087 854.634 322.241 854.976 322.38 855.307Z" fill="#E2DE80"/>
</svg>
