<svg width="911" height="1036" viewBox="0 0 911 1036" fill="none" xmlns="http://www.w3.org/2000/svg">
<path d="M588.631 122.282C583.425 101.23 583.695 75.754 588.938 53.992C595.098 57.13 595.175 48.8144 588.968 51.8598C587.935 46.5516 597.171 45.4371 592.331 42.94C589.053 42.5368 590.483 39.7287 590.8 39.5418C596.108 34.3126 592.435 25.8158 597.747 20.0818C599.72 22.0843 604.731 19.4142 601.149 17.4313C596.952 17.6207 599.57 15.4472 599.331 13.6155C599.033 11.2154 605.404 12.5954 601.362 8.81062C602.957 6.48784 602.44 -0.013915 606.031 0.707091C605.338 4.7088 612.741 2.30477 611.193 6.83643C610.742 8.09507 609.398 9.01958 607.599 8.97456C605.801 8.92955 607.001 10.4021 606.806 11.1578C606.255 13.1414 609.106 11.3945 608.749 12.7485C605.436 16.9514 604.81 22.5462 602.624 27.8934C603.482 27.1742 602.141 26.8309 601.827 26.5762C595.827 23.0922 597.79 33.0315 602.624 27.8934C602.888 30.6403 602.826 33.6298 598.845 34.4203C596.854 34.8155 598.563 36.4872 598.021 37.335C599.69 37.6945 600.072 37.8911 599.392 40.1892C596.068 50.1027 596.298 60.128 593.697 70.3309C594.554 69.6116 593.214 69.268 592.9 69.0133C586.9 65.5293 588.863 75.4689 593.697 70.3309C595.576 72.238 593.874 74.1978 593.449 76.1823C593.056 78.1355 591.469 76.907 590.554 76.9317C588.504 76.7586 588.568 80.6383 590.653 80.3384C594.645 78.0967 594.594 87.0732 591.072 85.5325C589.623 85.3323 589.115 85.7702 589.133 87.4425C589.425 90.6628 594.448 86.8603 593.561 91.4916C594.218 96.4184 589.511 92.1497 588.983 95.3008C589.004 96.7207 589.028 97.5081 590.703 97.1105C594.561 95.9405 594.325 104.411 590.709 102.712C586.92 103.125 589.479 107.503 592.78 104.877C595.285 103.224 594.546 111.31 593.648 113.133C594.506 112.414 593.165 112.071 592.851 111.816C586.851 108.332 588.814 118.271 593.648 113.133C598.639 116.547 593.796 135.599 601.531 134.805C622.406 132.217 644.425 128.819 664.051 128.588C681.852 127.775 701.085 133.184 718.401 129.717C721.13 127.656 724.158 129.775 727.184 130.177C752.233 143.079 783.843 145.858 808.805 161.915C816.802 164.057 824.016 175.449 832.395 173.02C836.983 171.382 841.076 172.549 844.204 176.106C1093.54 459.616 587.127 1037.85 257.661 1035.52C232.708 1035.34 117.189 1037.52 42.4201 950.525C40.847 937.357 28.5329 926.573 23.3485 911.138C12.4873 891.212 11.6549 867.16 1.89622 847.463C-19.3838 610.328 149.996 388.144 333.198 255.458C409.655 199.429 498.069 156.428 591.383 137.093C590.964 137.519 590.518 137.631 590.675 137.79C591.39 139.215 590.467 141.312 592.754 139.247C593.613 138.275 592.957 137.609 591.383 137.093C589.186 135.625 588.985 130.779 591.759 131.115C596.715 126.609 582.962 129.307 590.093 120.841C591.491 119.527 590.752 119.667 589.805 119.723C588.006 119.804 589.553 121.311 589.012 121.906C587.914 125.242 599.503 119.713 588.631 122.282ZM764.036 281.012C764.725 281.775 765.437 281.798 766.168 281.015C766.857 281.777 767.569 281.8 768.3 281.017C768.989 281.78 769.7 281.803 770.432 281.02C771.12 281.782 771.938 281.913 774.25 280.763C773.559 280.379 771.594 280.737 772.946 281.347C773.923 281.512 775.183 280.947 772.564 281.023C771.875 280.26 771.163 280.237 770.432 281.02C769.744 280.258 769.032 280.234 768.3 281.017C767.612 280.255 766.9 280.231 766.168 281.015M293.086 531.173C279.225 545.204 269.677 561.643 256.192 575.928C193.176 665.375 133.565 770.803 139.59 884.241C138.568 890.07 143.058 891.958 147.269 894.198C148.587 895.217 149.16 897.516 151.027 896.804C151.006 886.992 153.746 875.786 153.507 865.625C202.027 585.095 480.682 314.511 764.004 281.044C638.297 274.045 517.787 337.171 421.19 411.286C398.881 424.37 381.63 445.705 360.564 461.196C358.952 461.595 356.345 463.271 358.564 465.97C358.94 466.414 358.088 466.439 357.834 466.69C355.296 468.5 358.332 468.975 358.634 470.808C355.89 474.826 353.619 465.145 350.074 470.829C333.939 485.095 321.427 502.467 305.481 516.861M701.378 247.415C702.066 248.178 702.778 248.202 703.51 247.418C704.198 248.181 704.91 248.204 705.642 247.42C706.33 248.183 707.148 248.314 709.46 247.164C708.769 246.78 706.804 247.138 708.156 247.747C709.133 247.912 710.393 247.348 707.774 247.423C707.085 246.661 706.373 246.637 705.642 247.42C704.953 246.658 704.241 246.635 703.51 247.418C702.789 246.687 702.078 246.663 701.378 247.415ZM322.701 434.714C322.595 436.196 323.692 435.402 324.134 435.405C328.458 435.216 328.626 435.069 330.723 437.325C340.75 438.094 348.351 420.506 358.638 416.134C452.515 334.491 568.34 269.978 691.77 248.47C601.99 250.921 514.687 293.206 440.557 341.743C436.364 341.302 435.464 347.064 431.303 346.654M106.5 829.225C106.02 830.136 105.688 830.625 106.471 831.357C105.709 832.045 105.658 832.757 106.441 833.489C105.679 834.177 105.629 834.889 106.412 835.62C105.65 836.308 105.83 837.255 107.083 838.463C106.927 838.304 106.539 837.911 106.383 837.752C106.19 838.129 106.004 838.512 105.907 838.922C106.055 840.153 107.444 839.211 106.383 837.752C107.145 837.063 107.195 836.352 106.412 835.62C107.174 834.932 107.224 834.22 106.441 833.489C107.204 832.8 107.254 832.088 106.471 831.357C107.265 830.637 107.284 829.956 106.5 829.225C107.011 828.472 108.206 828.159 108.121 826.928ZM322.524 447.504C327.706 442.4 327.771 442.594 322.322 437.19C300.478 447.059 281.829 476.829 263.264 495.368C186.992 585.409 114.354 695.861 107.665 817.564C123.97 738.81 154.66 661.309 201.036 594.517C218.739 564.74 239.37 534.502 264.424 508.944M96.3899 778.207C95.6275 778.895 95.5768 779.608 96.3601 780.339C95.5977 781.027 95.4281 781.618 96.681 782.827C96.5244 782.668 96.4872 782.63 96.3306 782.471C96.1385 782.848 95.9523 783.231 95.8546 783.641C96.0031 784.872 97.3923 783.93 96.3306 782.471C97.093 781.782 97.1433 781.071 96.3601 780.339C97.1542 779.619 97.1732 778.939 96.3899 778.207ZM234.329 486.023C170.51 564.8 94.3179 669.545 96.4194 776.075C115.602 683.839 158.616 594.689 217.821 521.21C243.701 486.446 273.091 450.476 307 422.145C304.02 419.819 301.401 412.265 297.576 417.41C287.027 427.364 277.125 437.531 268.018 448.631M86.8426 777.099C86.0802 777.787 86.0295 778.499 86.8128 779.231C86.0504 779.919 86.0004 780.631 86.7836 781.362C85.506 783.435 85.9886 785.197 87.8075 786.662C87.0451 787.35 86.8755 787.941 88.1284 789.149C87.9719 788.99 87.9346 788.952 87.778 788.793C87.5859 789.17 87.3997 789.554 87.302 789.963C87.4505 791.195 88.8398 790.253 87.778 788.793C88.5404 788.105 88.5908 787.393 87.8075 786.662C89.0851 784.589 88.6025 782.827 86.7836 781.362C87.546 780.674 87.596 779.962 86.8128 779.231C87.5756 778.479 87.5945 777.798 86.8426 777.099ZM267.397 404.386C271.178 400.786 274.96 397.186 278.554 393.395C266.455 370.178 251.071 408.794 238.677 416.558C217.177 439.302 197.893 464.613 179.125 489.24C179.099 492.647 175.013 493.839 174.678 496.424C174.176 500.238 169.504 501.217 170.01 505.228C118.912 583.185 74.6119 680.95 86.8721 774.967C89.8255 659.136 145.078 547.948 218.138 461.322M663.477 215.363C664.166 216.125 664.878 216.149 665.609 215.366C666.582 216.035 666.833 217.689 670.128 215.82C668.146 215.08 668.23 217.326 670.129 216.52C670.192 216.521 670.402 216.353 668.792 216.435C667.819 215.765 667.293 213.832 665.609 215.366C664.858 214.603 664.177 214.611 663.477 215.363C662.789 214.601 662.077 214.577 661.345 215.361C660.657 214.598 659.945 214.575 659.213 215.358C658.525 214.596 657.813 214.572 657.081 215.355C512.588 197.552 372.814 289.507 272.08 380.848C271.815 382.549 271.995 385.212 273.93 383.932C279.217 381.48 279.946 386.861 284.182 389.953C283.121 388.368 281.623 389.835 280.427 389.447C278.4 394.701 288.211 392.963 283.131 388.886C318.517 357.033 356.086 325.868 395.837 300.989C473.232 250.425 563.34 215.247 656.731 215C657.419 215.762 658.482 216.141 659.213 215.358C659.902 216.12 660.614 216.144 661.345 215.361C662.065 216.155 662.746 216.146 663.477 215.363ZM600.36 228.477C599.672 227.714 598.96 227.691 598.229 228.474C596.568 226.979 595.999 228.881 594.508 230.037C518.763 237.389 437.873 284.849 374.455 331.164C344.747 350.471 318.016 375.089 290.364 397.882C287.498 397.198 288.879 402.986 291.195 401.268C297.243 398.379 298.887 409.713 304.56 402.12C314.424 391.088 326.837 383.217 336.762 372.501C362.207 353.635 387.413 333.637 414.022 315.316C418.024 316.008 418.766 310.213 422.767 310.906C475.601 274.893 535.08 249.122 595.048 229.505C596.708 231.001 597.277 229.098 598.229 228.474C598.917 229.237 599.629 229.26 600.36 228.477C602.021 229.972 602.696 228.177 605.227 227.187C604.536 226.803 602.922 227.516 604.274 228.126C605.251 228.291 606.161 227.371 603.541 227.446C601.881 225.951 601.312 227.853 600.36 228.477ZM555.414 155.003C557.075 156.498 557.644 154.596 558.595 153.972C560.668 155.25 562.31 154.627 592.634 145.673C583.67 146.174 572.205 148.905 563.908 152.944C572.968 152.223 584.347 150.04 592.921 146.792C593.081 146.572 592.922 146.22 563.908 152.944C561.835 151.667 560.06 152.153 558.595 153.972C556.904 152.382 556.397 154.348 555.414 155.003C553.753 153.508 553.185 155.41 552.234 156.034C550.573 154.538 550.004 156.441 548.576 157.534C548.735 157.378 548.894 157.221 549.053 157.065C548.675 156.873 548.093 156.408 547.684 156.311C546.452 156.459 547.593 158.126 549.053 157.065C550.714 158.56 551.282 156.658 552.234 156.034C553.863 157.56 554.431 155.658 555.414 155.003ZM25.8363 682.999C27.6457 681.53 28.1907 679.794 26.9444 677.702C27.6142 676.729 29.5562 676.221 28.0229 674.537C28.6928 673.564 30.6345 673.056 29.1012 671.372C30.9186 668.83 32.7137 666.266 31.3194 662.879C31.9893 661.906 33.9309 661.398 32.3976 659.714C33.0675 658.741 34.6591 657.877 33.1258 656.193C33.7956 655.22 35.7377 654.712 34.2043 653.028C34.8742 652.055 36.8159 651.547 35.2826 649.863C35.9524 648.89 37.8944 648.382 36.3611 646.698C37.031 645.725 38.973 645.217 37.4397 643.533C38.1096 642.56 40.3214 642.325 38.4532 639.03C37.7126 641.012 39.9275 640.972 39.1214 639.073C39.1219 639.01 38.4354 638.759 38.5179 640.368C37.8481 641.341 35.9064 641.849 37.4397 643.533C36.7698 644.506 34.8278 645.015 36.3611 646.698C35.6913 647.671 33.7493 648.18 35.2826 649.863C34.6127 650.836 32.671 651.345 34.2043 653.028C33.5345 654.001 31.5925 654.51 33.1258 656.193C32.4559 657.167 30.8643 658.031 32.3976 659.714C31.7277 660.687 29.7861 661.196 31.3194 662.879C29.5019 665.421 27.7069 667.986 29.1012 671.372C28.4313 672.345 26.4896 672.854 28.0229 674.537C27.3531 675.51 25.4111 676.019 26.9444 677.702M541.831 158.572C541.14 158.188 539.526 158.901 540.878 159.511C541.855 159.676 543.115 159.111 540.495 159.186C538.835 157.691 537.915 159.238 536.964 159.862C535.303 158.366 534.734 160.269 533.783 160.892C532.122 159.397 531.554 161.299 530.602 161.923C528.941 160.428 528.373 162.33 527.421 162.954C525.76 161.459 525.192 163.361 523.764 164.454C523.923 164.298 524.081 164.142 524.24 163.985C523.863 163.793 523.631 163.684 523.222 163.587C521.99 163.735 522.781 165.047 524.24 163.985C525.901 165.48 526.47 163.578 527.421 162.954C529.082 164.449 529.651 162.547 530.602 161.923C532.263 163.418 532.832 161.516 533.783 160.892C535.444 162.388 536.013 160.485 536.964 159.862C538.656 161.389 539.268 159.53 541.831 158.572ZM278.684 425.508C282.435 421.813 286.186 418.118 289.937 414.423C296.066 409.137 293.823 408.324 289.033 403.398C268.466 415.517 248.807 441.846 231.374 460.898C217.969 477.173 200.876 493.263 191.019 511.867C165.628 548.591 139.521 590.31 126.174 632.519C144.272 600.473 162.192 565.639 185.508 536.22C205.962 505.611 230.114 475.895 256.595 449.371M314.87 402.477C311.394 407.404 303.228 408.906 307.883 414.967C307.594 415.753 306.335 414.476 306.007 416.114C309.655 426.048 339.985 389.825 347.085 385.461C365.206 371.43 384.349 357.611 402.693 343.298C492.624 282.827 597.26 233.848 707.885 232.595C610.097 200.785 446.624 298.883 369.265 357.303M632.983 760.56C607.971 784.824 581.694 809.841 553.316 828.527C547.052 835.011 538.439 838.538 532.269 845.055C453.736 895.832 348.403 946.88 251.252 939.653C213.602 936.852 177.251 925.37 144.032 901.593C139.235 901.746 137.396 894.729 133.713 893.534C130.909 893.04 131.494 889.438 129.222 889.547C125.466 889.74 127.601 885.74 125.526 884.778C123.859 884.04 123.564 881.706 121.068 882.16C14.4714 742.098 116.414 550.258 212.349 434.082C228.386 416.029 244.325 396.987 262.025 380.24C263.675 378.991 264.251 378.05 262.466 376.301C229.794 340.846 238.39 349.191 206.786 381.388C87.0532 511.362 -51.9262 743.107 59.3429 916.332C187.204 1073.21 431.647 969.823 565.77 868.826C631.835 822.91 689.672 761.586 740.372 698.928C747.238 687.905 755.061 678.552 762.804 668.419C843.928 545.665 926.088 366.294 834.651 228.271C808.053 186.52 759.239 162.526 711.234 152.197C678.565 145.674 639.49 145.745 606.418 151.019C599.491 153.27 609.271 158.683 605.859 163.485C604.986 166.286 609.992 164.63 609.904 167.91C611.473 173.254 605.145 168.101 605.677 172.775C604.228 176.708 598.64 166.966 601.278 164.493C602.203 163.08 601.039 162.026 599.557 161.983C594.729 161.978 597.604 151.419 592.8 152.518C563.63 158.957 534.092 164.957 506.276 176.075C420.676 205.848 344.651 257.676 275.858 314.046C272.813 320.365 229.367 350.65 240.544 349.534C243.59 347.349 245.091 350.335 246.72 351.861C249.496 351.945 244.277 359.109 248.509 358.51C252.531 356.552 254.284 359.413 256.85 362.208C257.131 362.557 258.238 363.934 256.693 363.765C252.875 363.831 256.281 368.814 257.969 366.713C260.452 363.703 265.59 369.555 263.64 373.042C263.916 382.478 282.749 358.107 287.551 357.197C308.604 335.017 335.429 319.141 358.702 299.722C479.474 216.135 702.145 134.578 795.077 295.992C807.657 323.386 814.366 351.653 816.349 380.172C823.893 488.664 763.253 601.001 700.01 685.421C685.354 704.367 668.476 723.028 652.277 741.553M377.869 486.202C379.311 483.342 371.211 482.431 373.67 486.835C384.489 478.87 294.989 573.986 280.811 596.533C218.082 685.572 164.815 788.729 159.813 900.065C177.315 922.092 223.804 928.72 251.71 930.791C443.606 934.153 608.742 796.989 715.818 650.923C715.469 647.009 721.248 646.579 720.742 642.569C772.68 566.227 811.708 474.873 808.47 380.924C805.545 354.557 801.165 300.011 775.723 289.125C740.109 292.518 704.349 297.099 669.942 307.821C584.373 333.493 505.967 379.787 436.553 434.701C416.972 449.919 398.17 466.818 379.776 483.623C375.972 485.993 383.591 487.814 380.292 490.124C377.22 495.906 375.139 487.627 371.861 491.42C345.897 516.308 292.654 578.164 377.869 486.202ZM593.145 60.3607C590.665 58.733 588.724 60.1954 589.585 63.1676C591.16 63.4949 595.209 62.8371 593.145 60.3607ZM301.577 409.264C302.835 405.582 295.548 405.624 297.441 409.834C298.768 409.592 300.462 410.613 301.577 409.264ZM318.396 426.338C319.654 422.656 312.367 422.698 314.26 426.908C315.618 426.698 317.313 427.718 318.396 426.338ZM331.236 441.025C330.552 443.954 332.457 445.316 334.962 443.663C337.032 441.059 333.004 440.849 331.236 441.025ZM348.311 458.548C348.303 459.558 348.257 460.465 348.25 461.412C353.793 462.652 353.75 456.822 348.311 458.548ZM599.118 139.285C600.547 138.003 598.849 136.597 597.524 136.651C597.577 137.913 596.898 140.846 599.118 139.285ZM69.7518 569.649C69.7541 569.333 69.7809 569.17 69.7828 568.917C69.1504 569.102 68.4563 569.097 68.7021 569.982C69.0498 569.89 69.404 569.741 69.7518 569.649ZM454.044 191.783C453.728 191.78 453.564 191.805 453.312 191.803C453.497 192.435 453.478 193.116 454.363 192.87C454.24 192.49 454.136 192.13 454.044 191.783ZM457.574 189.707C457.315 190.589 457.964 190.549 458.625 190.774C458.884 189.893 458.203 189.901 457.574 189.707ZM53.3384 604.041C52.9921 603.943 52.6338 603.834 52.2562 603.705C51.9971 604.586 52.6465 604.546 53.3074 604.772C53.3093 604.52 53.3365 604.293 53.3384 604.041ZM485.308 178.506C484.962 178.409 484.604 178.3 484.226 178.171C483.967 179.052 484.617 179.012 485.277 179.238C485.279 178.985 485.307 178.759 485.308 178.506ZM51.369 607.383C51.3666 607.698 51.3398 607.862 51.3379 608.114C51.9703 607.93 52.6647 607.934 52.419 607.049C52.0395 607.173 51.7167 607.291 51.369 607.383ZM49.3378 612.187C49.6533 612.189 49.8173 612.165 50.0697 612.167C49.8851 611.535 49.9037 610.854 49.0184 611.1C49.1418 611.48 49.2458 611.839 49.3378 612.187ZM492.783 175.349C492.437 175.251 492.078 175.142 491.701 175.013C491.442 175.894 492.091 175.854 492.752 176.08C492.754 175.828 492.78 175.664 492.783 175.349ZM48.0999 614.808C48.0976 615.124 48.0708 615.287 48.0689 615.54C48.7013 615.355 49.3954 615.36 49.1496 614.475C48.8019 614.567 48.4795 614.685 48.0999 614.808ZM495.964 174.318C495.618 174.22 495.259 174.111 494.881 173.982C494.622 174.864 495.272 174.824 495.933 175.05C495.934 174.797 495.962 174.57 495.964 174.318ZM46.799 618.193C47.1454 618.29 47.5037 618.399 47.8813 618.528C48.1403 617.647 47.4909 617.687 46.8301 617.461C46.8282 617.714 46.7696 617.908 46.799 618.193ZM499.305 173.83C499.307 173.515 499.334 173.351 499.336 173.099C498.703 173.283 498.009 173.279 498.255 174.164C498.602 174.072 498.957 173.922 499.305 173.83ZM502.325 171.556C502.671 171.653 503.029 171.763 503.407 171.892C503.666 171.01 503.017 171.051 502.356 170.825C502.354 171.077 502.358 171.273 502.325 171.556ZM43.5293 625.619C43.8756 625.716 44.2339 625.826 44.6115 625.955C44.8706 625.073 44.2212 625.113 43.5603 624.888C43.5902 625.109 43.563 625.335 43.5293 625.619ZM506.747 170.705C506.749 170.389 506.776 170.226 506.778 169.973C506.145 170.158 505.452 170.152 505.697 171.037C506.077 170.914 506.399 170.797 506.747 170.705ZM43.5646 628.388C43.2183 628.291 42.86 628.181 42.4824 628.052C42.2234 628.934 42.8728 628.893 43.5336 629.119C43.5355 628.867 43.531 628.671 43.5646 628.388ZM509.96 169.642C509.962 169.327 509.989 169.163 509.991 168.911C509.358 169.095 508.664 169.09 508.91 169.975C509.258 169.883 509.612 169.734 509.96 169.642ZM42.4541 631.584C42.1078 631.487 41.7495 631.378 41.3719 631.249C41.1128 632.13 41.7622 632.09 42.4231 632.316C42.4563 632.095 42.4835 631.869 42.4541 631.584ZM545.331 157.928C544.984 157.831 544.626 157.721 544.248 157.592C543.989 158.474 544.639 158.433 545.299 158.659C545.301 158.407 545.297 158.211 545.331 157.928ZM121.092 641.73C121.059 642.013 121.414 642.564 121.412 642.817C122.044 642.632 122.738 642.637 122.493 641.752C122.145 641.844 121.44 641.638 121.092 641.73ZM607.994 225.863C607.679 225.86 607.515 225.885 607.263 225.883C607.447 226.515 607.429 227.196 608.314 226.95C608.191 226.57 608.087 226.21 607.994 225.863Z" fill="#FFB5D9"/>
</svg>
