<svg width="850" height="1081" viewBox="0 0 850 1081" fill="none" xmlns="http://www.w3.org/2000/svg">
<path d="M356.833 957.051C364.943 977.195 368.245 1002.49 366.095 1024.8C359.548 1022.56 360.637 1030.81 366.364 1026.92C368.132 1032.04 359.131 1034.44 364.28 1036.24C367.586 1036.18 366.562 1039.16 366.274 1039.39C361.743 1045.32 366.575 1053.23 362.111 1059.66C359.875 1057.95 355.28 1061.3 359.109 1062.76C363.245 1061.99 360.954 1064.51 361.447 1066.29C362.078 1068.63 355.568 1068.16 360.106 1071.34C358.85 1073.87 360.274 1080.24 356.612 1080.03C356.738 1075.97 349.735 1079.39 350.635 1074.68C350.906 1073.37 352.11 1072.26 353.899 1072.05C355.688 1071.85 354.292 1070.55 354.379 1069.78C354.648 1067.73 352.066 1069.86 352.23 1068.47C354.926 1063.84 354.763 1058.21 356.181 1052.6C355.432 1053.43 356.81 1053.58 357.156 1053.79C363.593 1056.41 360.255 1046.83 356.181 1052.6C355.535 1049.91 355.178 1046.94 359.014 1045.6C360.933 1044.93 359.004 1043.51 359.423 1042.59C357.718 1042.47 357.311 1042.33 357.664 1039.95C359.571 1029.66 357.938 1019.75 359.088 1009.27C358.339 1010.1 359.716 1010.26 360.063 1010.47C366.5 1013.08 363.161 1003.5 359.088 1009.27C356.958 1007.64 358.37 1005.46 358.514 1003.43C358.63 1001.44 360.376 1002.44 361.279 1002.29C363.336 1002.17 362.729 998.332 360.704 998.921C357.059 1001.7 355.852 992.796 359.56 993.83C361.026 993.826 361.468 993.32 361.215 991.665C360.475 988.513 356.028 992.986 356.258 988.27C354.916 983.477 360.181 987.05 360.264 983.852C360.044 982.447 359.91 981.67 358.304 982.299C354.643 983.999 353.691 975.568 357.514 976.746C361.213 975.805 358.062 971.823 355.157 974.889C352.905 976.879 352.505 968.758 353.139 966.824C352.39 967.658 353.768 967.81 354.114 968.019C360.552 970.633 357.213 961.053 353.139 966.824C347.713 964.139 349.846 944.57 342.287 946.441C321.952 951.931 300.596 958.384 281.169 961.362C263.633 964.662 243.805 961.991 227.122 967.854C224.705 970.281 221.405 968.603 218.349 968.629C191.705 959.345 159.974 961.017 132.974 948.592C124.744 947.589 115.996 937.303 108.028 940.886C103.709 943.153 99.4871 942.569 95.8871 939.48C-191.051 693.299 230.056 49.0434 557.054 5.20672C581.82 1.88666 696.054 -16.4544 782.376 59.3331C785.781 72.1693 799.501 81.136 806.804 95.7143C820.365 113.95 824.56 137.681 836.995 155.845C891.316 387.986 754.5 632.009 591.442 789.228C523.482 855.49 441.842 910.51 352.029 942.751C352.385 942.27 352.811 942.096 352.633 941.96C351.725 940.647 352.346 938.439 350.368 940.807C349.652 941.891 350.396 942.459 352.029 942.751C354.413 943.899 355.291 948.675 352.494 948.73C348.211 953.892 361.47 949.292 355.585 958.684C354.383 960.183 355.096 959.941 356.027 959.753C357.799 959.42 356.055 958.143 356.507 957.477C357.129 954.015 346.412 961.121 356.833 957.051ZM160.678 824.235C159.889 823.576 159.179 823.653 158.564 824.532C157.774 823.872 157.065 823.949 156.449 824.828C155.66 824.169 154.951 824.245 154.335 825.124C153.546 824.464 152.717 824.449 150.586 825.913C151.325 826.197 153.223 825.567 151.797 825.152C150.805 825.125 149.635 825.861 152.221 825.42C153.011 826.079 153.72 826.003 154.335 825.124C155.125 825.783 155.834 825.707 156.449 824.828C157.239 825.487 157.948 825.411 158.564 824.532M592.586 510.235C604.364 494.382 611.528 476.745 622.897 460.692C672.848 363.178 717.183 250.295 695.317 138.665C695.514 132.742 690.797 131.499 686.308 129.868C684.859 129.041 683.969 126.842 682.217 127.809C683.613 137.535 682.466 149.031 684.126 159.072C675.319 444.017 436.935 751.334 160.705 824.2C286.327 813.532 396.97 734.062 482.364 647.048C502.652 630.95 516.768 607.379 535.485 589.069C537.027 588.448 539.377 586.421 536.798 584.056C536.364 583.668 537.205 583.524 537.422 583.24C539.684 581.089 536.608 581.043 536.052 579.269C538.209 574.901 541.817 584.181 544.536 578.049C558.535 561.644 568.507 542.667 582.302 526.162M227.511 848.771C226.722 848.112 226.013 848.188 225.398 849.067C224.608 848.407 223.899 848.484 223.283 849.363C222.494 848.704 221.665 848.688 219.533 850.153C220.273 850.436 222.17 849.807 220.744 849.392C219.753 849.365 218.582 850.101 221.169 849.659C221.958 850.319 222.667 850.242 223.283 849.363C224.072 850.023 224.782 849.946 225.398 849.067C226.214 849.691 226.923 849.615 227.511 848.771ZM576.736 610.023C576.633 608.539 575.657 609.48 575.219 609.539C570.958 610.331 570.812 610.501 568.416 608.558C558.367 609.2 553.294 627.704 543.707 633.479C462.065 727.578 356.259 807.766 236.891 846.38C325.565 831.375 406.204 777.22 472.905 718.712C477.124 718.563 477.209 712.723 481.393 712.547M735.833 188.579C736.182 187.608 736.443 187.077 735.564 186.461C736.223 185.672 736.174 184.958 735.295 184.343C735.954 183.553 735.904 182.841 735.025 182.225C735.685 181.436 735.373 180.523 733.961 179.501C734.139 179.636 734.578 179.972 734.756 180.108C734.893 179.707 735.024 179.301 735.064 178.881C734.744 177.681 733.499 178.81 734.756 180.108C734.096 180.897 734.146 181.61 735.025 182.225C734.366 183.015 734.416 183.727 735.295 184.343C734.635 185.132 734.685 185.845 735.564 186.461C734.877 187.286 734.954 187.963 735.833 188.579C735.433 189.397 734.291 189.875 734.549 191.083L735.833 188.579ZM575.119 597.317C570.697 603.103 570.605 602.92 576.765 607.515C597.041 594.67 611.361 562.541 627.172 541.559C690.182 441.599 746.73 321.911 736.312 200.304C731.179 280.673 711.607 361.815 674.981 434.536C661.6 466.54 645.38 499.411 624.119 528.261M753.005 237.748C753.665 236.958 753.615 236.245 752.736 235.629C753.396 234.84 753.481 234.231 752.07 233.208C752.247 233.344 752.289 233.376 752.467 233.512C752.605 233.111 752.736 232.705 752.775 232.285C752.455 231.085 751.21 232.213 752.467 233.512C751.807 234.301 751.857 235.014 752.736 235.629C752.05 236.454 752.126 237.132 753.005 237.748ZM657.17 546.771C709.412 459.725 770.283 345.197 753.275 239.865C747.177 334.005 717.017 428.424 668.609 509.572C647.818 547.665 623.717 587.447 594.065 620.287C597.345 622.175 601 629.298 604.072 623.661C613.137 612.314 621.531 600.847 629.006 588.565M762.627 237.509C763.287 236.72 763.237 236.007 762.358 235.391C763.017 234.602 762.967 233.889 762.088 233.274C763.065 231.04 762.339 229.36 760.331 228.163C760.99 227.373 761.076 226.764 759.664 225.741C759.841 225.877 759.884 225.909 760.061 226.045C760.199 225.644 760.33 225.238 760.369 224.818C760.05 223.618 758.804 224.747 760.061 226.045C759.402 226.834 759.452 227.547 760.331 228.163C759.354 230.397 760.08 232.076 762.088 233.274C761.429 234.063 761.479 234.775 762.358 235.391C761.707 236.243 761.783 236.921 762.627 237.509ZM635.82 632.348C632.575 636.447 629.33 640.546 626.298 644.808C641.546 666.133 651.39 625.69 662.591 616.257C680.722 590.694 696.296 562.897 711.455 535.85C711.003 532.468 714.888 530.714 714.858 528.104C714.821 524.252 719.317 522.627 718.253 518.721C757.996 434.269 788.224 331.129 762.896 239.627C776.196 354.888 736.988 472.872 676.685 568.996M269.581 875.243C268.792 874.583 268.083 874.66 267.467 875.539C266.408 875.011 265.928 873.407 262.923 875.721C264.992 876.178 264.594 873.962 262.824 875.027C262.761 875.035 262.576 875.232 264.161 874.924C265.22 875.452 266.012 877.295 267.467 875.539C268.319 876.19 268.993 876.086 269.581 875.243C270.37 875.902 271.08 875.826 271.695 874.947C272.485 875.606 273.194 875.53 273.809 874.651C274.599 875.31 275.308 875.234 275.924 874.355C421.685 871.769 547.392 761.017 634.474 656.342C634.498 654.618 633.947 652.003 632.208 653.543C627.309 656.715 625.832 651.481 621.199 649.009C622.473 650.432 623.753 648.768 624.993 648.985C626.267 643.492 616.782 646.589 622.391 649.92C591.767 686.459 558.883 722.621 522.955 752.857C453.3 813.832 368.885 861.332 276.321 874.658C275.532 873.999 274.425 873.772 273.809 874.651C273.02 873.991 272.311 874.068 271.695 874.947C270.87 874.26 270.197 874.364 269.581 875.243ZM330.325 853.4C331.115 854.06 331.824 853.983 332.439 853.104C334.296 854.354 334.593 852.389 335.91 851.033C409.982 833.135 483.537 774.747 539.928 719.944C566.679 696.639 589.735 668.486 613.959 642.014C616.897 642.29 614.716 636.745 612.66 638.772C607.069 642.484 603.85 631.477 599.289 639.8C591.055 652.12 579.85 661.662 571.511 673.678C548.924 695.947 526.733 719.307 502.917 741.199C498.852 741.073 498.928 746.922 494.864 746.796C447.523 789.904 392.159 823.787 335.449 851.636C333.593 850.386 333.295 852.352 332.439 853.104C331.65 852.444 330.941 852.521 330.325 853.4C328.469 852.15 328.051 854.024 325.68 855.361C326.419 855.645 327.92 854.711 326.494 854.296C325.502 854.269 324.729 855.309 327.316 854.868C329.172 856.118 329.469 854.152 330.325 853.4ZM385.183 919.955C383.327 918.705 383.029 920.671 382.174 921.423C379.94 920.446 378.399 921.293 349.587 934.419C358.405 932.667 369.39 928.353 377.05 923.186C368.168 925.17 357.192 928.928 349.145 933.35C349.018 933.59 349.224 933.917 377.05 923.186C379.284 924.162 380.976 923.431 382.174 921.423C384.074 922.762 384.3 920.742 385.183 919.955C387.04 921.205 387.337 919.239 388.193 918.487C390.049 919.737 390.347 917.771 391.609 916.487C391.474 916.665 391.338 916.842 391.202 917.02C391.603 917.157 392.246 917.536 392.665 917.576C393.866 917.256 392.5 915.763 391.202 917.02C389.346 915.77 389.048 917.736 388.193 918.487C386.363 917.202 386.066 919.167 385.183 919.955ZM836.299 322.265C834.71 323.975 834.413 325.773 835.942 327.672C835.414 328.731 833.56 329.507 835.316 330.962C834.788 332.02 832.934 332.796 834.69 334.251C833.244 337.026 831.824 339.82 833.681 342.982C833.153 344.041 831.299 344.817 833.055 346.271C832.527 347.33 831.07 348.41 832.826 349.864C832.299 350.923 830.444 351.699 832.2 353.154C831.673 354.212 829.819 354.988 831.575 356.443C831.047 357.501 829.193 358.278 830.949 359.732C830.421 360.791 828.567 361.567 830.323 363.022C829.795 364.08 827.635 364.623 829.949 367.628C830.405 365.559 828.215 365.909 829.28 367.68C829.289 367.742 830.004 367.895 829.697 366.311C830.225 365.252 832.079 364.476 830.323 363.022C830.851 361.963 832.705 361.187 830.949 359.732C831.477 358.674 833.331 357.897 831.575 356.443C832.103 355.384 833.957 354.608 832.2 353.154C832.728 352.095 834.583 351.319 832.826 349.864C833.354 348.806 834.811 347.726 833.055 346.271C833.583 345.213 835.437 344.437 833.681 342.982C835.127 340.207 836.547 337.413 834.69 334.251C835.218 333.192 837.072 332.416 835.316 330.962C835.844 329.903 837.698 329.127 835.942 327.672M398.151 914.514C398.891 914.798 400.391 913.865 398.965 913.45C397.973 913.423 396.803 914.159 399.39 913.718C401.246 914.967 401.941 913.305 402.796 912.553C404.653 913.803 404.95 911.837 405.806 911.086C407.662 912.336 407.96 910.37 408.815 909.618C410.672 910.868 410.969 908.902 411.825 908.151C413.681 909.401 413.979 907.435 415.241 906.151C415.106 906.328 414.97 906.505 414.835 906.683C415.235 906.82 415.481 906.895 415.9 906.935C417.101 906.615 416.133 905.426 414.835 906.683C412.978 905.433 412.681 907.399 411.825 908.151C409.969 906.901 409.671 908.866 408.815 909.618C406.959 908.368 406.662 910.334 405.806 911.086C403.95 909.836 403.652 911.802 402.796 912.553C400.905 911.276 400.558 913.204 398.151 914.514ZM621.669 612.986C618.468 617.175 615.267 621.364 612.065 625.553C606.729 631.652 609.066 632.145 614.505 636.358C633.201 621.461 649.004 592.602 663.62 571.27C674.631 553.256 689.325 534.908 696.493 515.081C716.523 475.112 736.564 430.091 743.885 386.371C730.429 420.68 717.541 457.728 698.545 490.163C682.552 523.377 662.768 556.223 640.228 586.232M589.017 640.89C591.773 635.517 599.66 632.885 594.194 627.527C594.372 626.707 595.799 627.797 595.894 626.127C590.885 616.788 565.887 656.952 559.459 662.274C543.458 678.723 526.413 695.107 510.23 711.867C429.533 784.421 332.647 847.64 223.136 864.377C324.551 882.22 472.893 762.058 541.412 693.299M223.437 330.402C244.838 302.841 267.387 274.356 292.906 251.854C298.209 244.547 306.254 239.843 311.459 232.518C382.212 171.172 479.5 105.804 576.84 99.3624C614.563 96.8661 652.214 103.16 688.482 122.082C693.217 121.258 696.024 127.958 699.842 128.627C702.692 128.724 702.616 132.377 704.854 131.951C708.551 131.234 706.994 135.499 709.186 136.162C710.942 136.661 711.562 138.933 713.973 138.133C839.288 262.076 765.086 466.567 686.241 595.193C672.869 615.339 659.733 636.452 644.529 655.536C643.068 657.006 642.629 658.02 644.644 659.503C682.006 690.081 672.314 683.012 699.138 646.661C799.647 501.02 904.981 251.776 770.388 95.6061C621.633 -42.0332 393.748 94.7149 274.912 213.641C215.84 268.421 167.085 337.325 125.593 406.553C120.33 418.444 113.884 428.813 107.626 439.944C44.3872 573.019 -11.9463 762.375 98.0507 886.42C130.273 924.091 182.033 941.044 231.078 944.562C264.384 946.454 303.117 940.91 335.171 931.049C341.723 927.847 331.268 923.85 333.979 918.611C334.452 915.711 329.72 918.054 329.348 914.789C327.043 909.711 334.04 913.933 332.857 909.374C333.743 905.271 340.648 914.148 338.38 916.969C337.66 918.5 338.962 919.382 340.438 919.217C345.225 918.545 343.854 929.418 348.463 927.655C376.483 917.185 404.93 907.099 430.953 892.179C511.655 850.669 579.774 788.633 640.087 723.106C642.221 716.414 681.055 680.301 670.129 682.973C667.416 685.566 665.509 682.816 663.68 681.531C660.916 681.836 665.087 674.002 660.975 675.189C657.261 677.693 655.122 675.103 652.186 672.69C651.858 672.383 650.569 671.173 652.124 671.125C655.9 670.524 651.825 666.06 650.446 668.38C648.405 671.713 642.491 666.63 643.936 662.899C642.341 653.582 627.082 680.384 622.448 681.959C604.68 706.9 580.307 726.398 559.953 748.912C451.915 848.705 242.559 960.758 127.802 813.731C111.491 788.331 100.879 761.244 94.9175 733.245C72.2383 626.73 116.626 506.853 167.506 414.292C179.383 393.453 193.503 372.587 206.969 351.95M514.822 566.699C513.794 569.737 521.953 569.506 518.898 565.484C509.287 574.896 584.701 468.052 595.6 443.71C645.323 346.641 683.687 236.899 673.049 125.808C652.609 106.419 605.586 106.358 577.627 108.214C386.888 131.758 242.369 290.888 156.664 450.71C157.559 454.543 151.889 455.778 152.953 459.684C112.15 542.652 86.2519 638.697 102.624 731.396C109.218 757.129 121.202 810.599 147.954 817.829C182.791 809.476 217.605 799.925 250.218 784.475C331.464 747.036 402.72 690.153 463.852 625.983C481.135 608.151 497.41 588.762 513.293 569.523C516.733 566.641 508.924 565.903 511.871 563.15C514.107 556.987 517.33 564.904 520.049 560.684C542.306 532.371 586.431 463.582 514.822 566.699ZM361.031 1019.08C363.719 1020.35 365.439 1018.62 364.169 1015.8C362.561 1015.69 358.638 1016.91 361.031 1019.08ZM601.247 632.298C600.515 636.125 607.734 635.063 605.268 631.154C603.986 631.58 602.163 630.805 601.247 632.298ZM582.178 617.725C581.446 621.552 588.666 620.49 586.199 616.58C584.882 616.98 583.058 616.205 582.178 617.725ZM567.389 604.962C567.658 601.961 565.578 600.878 563.326 602.868C561.638 605.739 565.661 605.384 567.389 604.962ZM548.005 589.978C547.871 588.976 547.789 588.07 547.664 587.13C541.994 586.677 542.853 592.451 548.005 589.978ZM344.052 941.66C342.815 943.132 344.695 944.288 346.002 944.05C345.772 942.805 346.035 939.802 344.052 941.66ZM808.636 440.805C808.678 441.118 808.674 441.284 808.707 441.534C809.309 441.263 809.998 441.171 809.63 440.327C809.298 440.467 808.968 440.665 808.636 440.805ZM480.541 869.289C480.854 869.247 481.013 869.2 481.264 869.167C480.992 868.565 480.915 867.888 480.072 868.256C480.248 868.615 480.401 868.957 480.541 869.289ZM477.332 871.841C477.465 870.931 476.827 871.062 476.14 870.93C476.007 871.841 476.681 871.737 477.332 871.841ZM820.092 404.406C820.449 404.454 820.819 404.512 821.212 404.587C821.345 403.677 820.707 403.807 820.02 403.676C820.053 403.927 820.058 404.155 820.092 404.406ZM451.402 886.832C451.759 886.88 452.129 886.938 452.522 887.013C452.655 886.103 452.017 886.234 451.33 886.102C451.363 886.353 451.368 886.581 451.402 886.832ZM821.576 400.816C821.534 400.503 821.538 400.337 821.504 400.087C820.903 400.358 820.214 400.451 820.582 401.294C820.941 401.118 821.244 400.956 821.576 400.816ZM822.917 395.768C822.604 395.81 822.445 395.857 822.194 395.89C822.466 396.492 822.543 397.169 823.386 396.801C823.211 396.442 823.057 396.1 822.917 395.768ZM444.433 891.009C444.79 891.057 445.161 891.116 445.553 891.191C445.687 890.28 445.048 890.411 444.361 890.28C444.395 890.53 444.391 890.696 444.433 891.009ZM823.777 392.996C823.735 392.682 823.739 392.517 823.705 392.266C823.104 392.538 822.415 392.63 822.783 393.473C823.115 393.333 823.418 393.171 823.777 392.996ZM441.424 892.477C441.781 892.525 442.151 892.583 442.544 892.658C442.677 891.748 442.039 891.879 441.352 891.747C441.386 891.998 441.39 892.227 441.424 892.477ZM824.593 389.458C824.236 389.41 823.865 389.352 823.473 389.277C823.339 390.187 823.978 390.056 824.665 390.188C824.631 389.937 824.662 389.736 824.593 389.458ZM438.179 893.428C438.221 893.741 438.218 893.907 438.251 894.158C438.852 893.886 439.542 893.794 439.174 892.951C438.842 893.091 438.511 893.288 438.179 893.428ZM435.504 896.106C435.147 896.058 434.776 896 434.384 895.925C434.25 896.835 434.888 896.704 435.575 896.836C435.542 896.585 435.51 896.392 435.504 896.106ZM826.795 381.637C826.438 381.589 826.067 381.53 825.674 381.455C825.541 382.366 826.179 382.235 826.866 382.366C826.806 382.151 826.801 381.923 826.795 381.637ZM431.238 897.57C431.28 897.883 431.277 898.049 431.31 898.3C431.911 898.028 432.6 897.936 432.232 897.093C431.873 897.268 431.57 897.43 431.238 897.57ZM826.372 378.896C826.729 378.944 827.099 379.002 827.492 379.077C827.625 378.167 826.987 378.298 826.3 378.167C826.333 378.417 826.365 378.61 826.372 378.896ZM428.202 899.073C428.243 899.387 428.24 899.552 428.273 899.803C428.874 899.531 429.563 899.439 429.196 898.596C428.864 898.736 428.533 898.933 428.202 899.073ZM827.025 375.571C827.382 375.619 827.752 375.677 828.145 375.752C828.278 374.842 827.64 374.973 826.953 374.842C826.951 375.065 826.956 375.294 827.025 375.571ZM394.772 915.643C395.129 915.69 395.499 915.749 395.892 915.824C396.025 914.914 395.387 915.044 394.7 914.913C394.734 915.164 394.766 915.357 394.772 915.643ZM747.633 376.526C747.626 376.24 747.197 375.744 747.164 375.493C746.562 375.765 745.873 375.857 746.241 376.701C746.573 376.561 747.301 376.666 747.633 376.526ZM323.122 857.061C323.435 857.019 323.594 856.972 323.845 856.939C323.573 856.338 323.496 855.66 322.653 856.028C322.829 856.387 322.982 856.729 323.122 857.061Z" fill="black"/>
</svg>
