<svg width="923" height="580" viewBox="0 0 923 580" fill="none" xmlns="http://www.w3.org/2000/svg">
<path d="M142.511 72.1443C135.288 55.7237 122.207 39.1411 107.721 27.4864C105.241 32.6304 100.979 27.2119 106.622 26.1023C104.616 22.1019 97.9493 25.9953 99.8824 21.933C101.844 20.0269 99.4769 18.9005 99.1728 18.9365C93.0172 18.1632 91.1406 10.7484 84.7269 9.64578C84.4377 11.9476 79.7744 12.7049 81.1366 9.6101C84.006 7.63243 81.1755 7.51704 80.4055 6.19558C79.3865 4.47171 75.8763 8.5673 76.6298 4.05993C74.3995 3.33441 71.4487 -1.19129 69.441 1.0802C71.9254 3.35928 65.8166 5.48883 69.1348 7.6871C70.0704 8.28709 71.4268 8.22062 72.5919 7.29071C73.7571 6.3608 73.7102 7.92784 74.2218 8.32613C75.5906 9.35168 72.822 9.63315 73.7438 10.3428C78.0613 11.4418 81.3086 14.7996 85.4608 17.214C84.5301 17.1713 85.2422 16.2746 85.3204 15.9504C87.5201 10.6597 91.2571 18.1648 85.4608 17.214C86.678 19.1483 88.2328 21.0792 91.2636 19.6043C92.779 18.8668 92.4964 20.8196 93.2844 21.1042C92.3635 22.1761 92.2107 22.4963 93.8238 23.6639C101.041 28.5045 105.967 35.1982 112.852 40.591C111.922 40.5483 112.633 39.6515 112.712 39.3273C114.911 34.0367 118.649 41.5418 112.852 40.591C112.577 42.7832 114.694 43.2172 115.98 44.3066C117.229 45.3913 117.655 43.7906 118.272 43.3486C119.539 42.2087 121.461 44.7867 119.932 45.6338C116.159 46.1618 120.739 52.0269 122.285 49.2521C123.142 48.3948 123.699 48.4277 124.534 49.5346C125.972 51.7936 120.728 51.8137 123.659 54.4087C125.72 57.9707 126.668 52.8126 128.613 54.6157C129.319 55.5579 129.701 56.0868 128.393 56.6647C125.252 57.8288 129.698 63.2688 131.226 60.3433C133.939 58.7171 134.466 62.8711 130.955 62.8012C128.462 62.9706 133.046 67.9066 134.562 68.6537C133.632 68.6111 134.344 67.7143 134.422 67.3901C136.622 62.0995 140.359 69.6046 134.562 68.6537C132.994 73.3927 145.843 83.4696 140.33 86.8224C125.227 95.5766 108.958 104.373 95.8739 114.049C83.701 122.429 73.7332 135.611 60.5367 142.006C57.6894 142.02 56.762 144.927 54.9661 146.706C44.9508 167.716 25.4733 185.368 17.113 208.404C12.9138 213.815 13.9173 224.903 7.15061 227.504C3.29036 228.727 1.17671 231.542 0.911362 235.443C-20.2381 546.338 607.208 672.188 823.709 505.678C840.106 493.067 917.535 436.651 922.873 342.122C917.244 332.693 919.918 319.451 915.526 306.726C912.61 288.212 900.979 272.012 897.45 254.2C791.41 87.9364 566.97 26.9559 378.727 31.626C299.834 33.1463 219.64 49.2025 148.194 83.2415C148.686 83.3115 149.038 83.162 149.015 83.3447C149.264 84.6378 150.936 85.5514 148.379 85.3415C147.319 85.1341 147.415 84.3685 148.194 83.2415C148.902 81.1779 146.581 77.8976 144.918 79.5073C139.362 79.032 149.814 73.9153 140.815 71.9313C139.226 71.7687 139.785 71.4907 140.439 71.0533C141.669 70.2057 141.41 71.9688 142.069 72.0887C144.484 73.7281 134.026 75.9031 142.511 72.1443ZM107.011 264.138C106.942 264.983 106.483 265.355 105.603 265.207C105.534 266.052 105.076 266.424 104.196 266.277C104.127 267.122 103.669 267.494 102.789 267.346C102.72 268.191 102.246 268.686 100.136 269.089C100.398 268.491 101.878 267.742 101.293 268.819C100.731 269.417 99.6129 269.677 101.382 268.415C101.45 267.57 101.909 267.198 102.789 267.346C102.858 266.501 103.316 266.129 104.196 266.277C104.264 265.432 104.723 265.06 105.603 265.207M544.869 192.465C561.133 194.731 575.768 200.737 591.912 203.358C678.85 230.498 771.631 269.83 825.102 347.284C828.729 350.598 826.719 354.085 825.071 357.664C824.717 358.992 825.503 360.788 823.909 361.256C818.953 354.806 811.467 348.825 806.479 342.037C632.342 182.25 311.191 144.23 107.048 264.143C186.559 196.602 298.152 177.68 399.511 177.943C420.878 175.357 443.081 180.719 464.845 180.336C466.112 179.79 468.684 179.584 468.584 182.467C468.561 182.946 469.136 182.536 469.431 182.573C472.025 182.491 470.26 184.323 470.988 185.676C474.836 186.939 471.434 179.449 476.655 181.404C494.54 182.686 511.605 187.82 529.431 189.28M131.394 210.716C131.325 211.561 130.867 211.933 129.987 211.785C129.918 212.63 129.459 213.002 128.579 212.854C128.51 213.699 128.037 214.195 125.927 214.598C126.189 214 127.668 213.25 127.083 214.328C126.522 214.925 125.403 215.186 127.172 213.923C127.241 213.078 127.699 212.706 128.579 212.854C128.648 212.009 129.107 211.637 129.987 211.785C130.092 210.945 130.551 210.573 131.394 210.716ZM476.449 143.998C477.27 144.917 476.142 144.945 475.852 145.169C472.9 147.21 472.714 147.198 472.471 149.728C466.236 155.254 452.306 147.519 443.295 149.801C339.92 143.236 230.72 158.902 138.276 206.596C198.836 163.247 277.934 147.277 351.494 142.007C354.041 139.618 357.554 142.948 360.096 140.596M819.101 294.613C819.88 294.971 820.347 295.125 820.2 295.998C821.052 296.068 821.447 296.509 821.3 297.382C822.152 297.452 822.545 297.893 822.398 298.766C823.251 298.836 823.61 299.547 823.395 300.968C823.418 300.785 823.474 300.332 823.497 300.15C823.815 300.301 824.132 300.459 824.404 300.679C824.93 301.562 823.535 301.639 823.497 300.15C822.645 300.08 822.251 299.638 822.398 298.766C821.546 298.696 821.152 298.254 821.3 297.382C820.447 297.312 820.053 296.87 820.2 295.998C819.311 295.923 818.954 295.486 819.101 294.613C818.382 294.375 817.434 294.768 816.867 293.918ZM483.043 152.302C477.035 151.547 477.09 151.708 477.953 145.433C497.384 140.971 524.784 151.167 546.439 154.036C642.435 174.928 746.368 211.033 812.425 287.545C761.767 244.031 702.238 208.543 637.768 187.937C610.991 177.262 582.046 167.75 552.548 163.525M799.942 256.073C800.795 256.143 801.189 256.585 801.042 257.457C801.894 257.527 802.305 257.829 802.089 259.25C802.112 259.067 802.118 259.024 802.141 258.841C802.459 258.992 802.776 259.15 803.048 259.37C803.573 260.253 802.178 260.33 802.141 258.841C801.288 258.771 800.895 258.329 801.042 257.457C800.152 257.382 799.795 256.945 799.942 256.073ZM560.824 133.415C642.887 153.15 746.278 183.731 798.843 254.689C739.455 203.769 665.883 166.808 589.551 148.238C554.845 138.385 517.209 129.499 480.457 127.888C481.248 124.87 479.152 118.601 484.285 120.062C496.297 121.311 507.988 123.024 519.627 125.748M805.689 250.564C806.541 250.634 806.935 251.076 806.788 251.949C807.641 252.019 808.034 252.46 807.887 253.333C809.781 254.053 810.354 255.451 809.895 257.323C810.747 257.393 811.158 257.696 810.942 259.116C810.965 258.933 810.971 258.89 810.994 258.707C811.312 258.858 811.629 259.016 811.901 259.236C812.426 260.119 811.031 260.196 810.994 258.707C810.141 258.637 809.748 258.195 809.895 257.323C808.001 256.602 807.427 255.205 807.887 253.333C807.035 253.263 806.641 252.821 806.788 251.949C805.904 251.837 805.546 251.4 805.689 250.564ZM497.629 96.4028C493.307 95.9341 488.985 95.4655 484.691 94.7776C480.926 73.4842 510.648 91.1206 522.769 90.0082C548.493 94.1674 574.054 101.12 598.926 107.882C600.669 110.105 603.973 108.841 605.503 110.369C607.766 112.621 611.349 110.924 613.046 113.809C686.29 139.377 765.074 181.347 804.59 249.18C743.974 174.651 651.155 129.357 559.011 109.098M140.202 170.704C140.133 171.549 139.674 171.921 138.794 171.773C138.491 172.7 139.163 173.91 136.039 174.334C136.974 172.856 138.056 174.372 136.393 174.794C136.352 174.826 136.128 174.821 137.233 174.069C137.537 173.142 136.905 171.61 138.794 171.773C138.905 170.896 139.359 170.561 140.202 170.704C140.27 169.859 140.729 169.487 141.609 169.635C141.678 168.79 142.136 168.418 143.016 168.565C143.085 167.721 143.544 167.349 144.424 167.496C230.874 83.4581 369.797 73.8067 482.613 83.3024C483.65 84.2863 484.879 86.1233 482.954 86.2526C478.218 87.2906 480.462 91.1872 479.229 95.3375C479.127 93.7659 480.86 93.9781 481.454 93.1249C485.454 95.5573 478.091 99.3299 479.383 94.1108C439.871 90.9286 399.265 89.2906 360.4 92.8702C283.656 98.4459 206.304 120.484 144.475 167.087C144.406 167.932 143.896 168.713 143.016 168.565C142.948 169.41 142.489 169.782 141.609 169.635C141.536 170.516 141.082 170.852 140.202 170.704ZM188.545 147.703C188.614 146.858 189.072 146.486 189.952 146.634C190.293 144.821 191.631 145.785 193.202 145.796C246.971 112.691 324.453 103.329 389.81 101.964C419.217 99.7571 449.347 102.525 479.16 103.636C480.707 101.752 482.726 106.241 480.326 106.274C474.867 107.407 479.521 115.667 471.927 113.526C459.823 111.226 447.635 112.277 435.65 110.215C409.284 110.576 382.501 110.076 355.641 111.378C353.348 113.836 349.923 110.405 347.63 112.863C294.483 115.688 242.132 128.562 192.576 145.718C192.236 147.531 190.897 146.567 189.952 146.634C189.884 147.479 189.425 147.851 188.545 147.703C188.205 149.516 186.85 148.676 184.676 149.294C184.938 148.696 186.366 148.356 185.781 149.433C185.22 150.03 184.153 149.882 185.921 148.62C186.261 146.807 187.601 147.77 188.545 147.703ZM181.03 76.983C180.689 78.7959 179.35 77.8324 178.406 77.8994C177.683 79.7756 176.283 80.1891 151.713 89.4983C157.889 85.3381 166.847 81.3889 174.375 79.885C168.024 83.949 159.4 88.2143 152.09 90.3763C151.873 90.312 151.8 90.0016 174.375 79.885C175.097 78.0088 176.516 77.4394 178.406 77.8994C178.718 76.0087 180.048 77.0453 181.03 76.983C181.37 75.17 182.709 76.1335 183.653 76.0665C183.993 74.2536 185.333 75.2171 186.83 75.2196C186.646 75.1965 186.461 75.1733 186.277 75.1501C186.429 74.8352 186.579 74.2389 186.8 73.9698C187.688 73.4505 187.779 75.1161 186.277 75.1501C185.937 76.9631 184.597 75.9996 183.653 76.0665C183.35 77.8841 182.011 76.9207 181.03 76.983ZM798.338 158.267C796.398 158.209 795.159 157.343 794.923 155.346C793.988 155.043 792.447 155.682 792.608 153.81C791.672 153.506 790.132 154.145 790.292 152.273C787.804 151.515 785.319 150.73 784.525 147.81C783.59 147.507 782.05 148.146 782.21 146.273C781.275 145.97 779.785 146.2 779.946 144.328C779.01 144.024 777.47 144.663 777.63 142.791C776.695 142.488 775.154 143.126 775.315 141.254C774.379 140.951 772.839 141.59 772.999 139.717C772.064 139.414 770.523 140.053 770.683 138.18C769.748 137.877 768.168 138.831 767.733 135.733C769.226 136.663 767.742 137.745 767.313 136.095C767.281 136.054 767.607 135.546 768.368 136.643C769.303 136.946 770.844 136.307 770.683 138.18C771.619 138.483 773.159 137.844 772.999 139.717C773.934 140.02 775.475 139.381 775.315 141.254C776.25 141.557 777.79 140.918 777.63 142.791C778.565 143.094 780.106 142.455 779.946 144.328C780.881 144.631 782.37 144.401 782.21 146.273C783.145 146.576 784.686 145.938 784.525 147.81C787.013 148.568 789.499 149.352 790.292 152.273C791.228 152.576 792.768 151.937 792.608 153.81C793.543 154.113 795.084 153.474 794.923 155.346M191.811 72.5227C192.074 71.9247 193.501 71.5845 192.917 72.6616C192.355 73.259 191.237 73.5197 193.005 72.2573C193.345 70.4444 194.736 70.999 195.68 70.9321C196.02 69.1191 197.36 70.0826 198.304 70.0157C198.644 68.2027 199.983 69.1661 200.928 69.0992C201.268 67.2863 202.607 68.2497 203.552 68.1828C203.892 66.3699 205.231 67.3333 206.728 67.3358C206.544 67.3127 206.36 67.2896 206.175 67.2664C206.327 66.9515 206.426 66.7641 206.647 66.495C207.536 65.9757 207.677 67.2324 206.175 67.2664C205.835 69.0794 204.496 68.1159 203.552 68.1828C203.212 69.9957 201.872 69.0323 200.928 69.0992C200.588 70.9121 199.249 69.9487 198.304 70.0157C197.964 71.8286 196.625 70.8651 195.68 70.9321C195.336 72.7815 193.99 71.8686 191.811 72.5227ZM500.869 115.915C496.519 115.369 492.17 114.822 487.82 114.276C481.093 113.876 482.163 112.22 482.833 106.589C502.56 104.242 528.883 111.676 550.051 115.448C567.15 119.415 586.593 121.414 602.528 128.686C637.903 140.07 676.281 154.372 706.478 175.386C678.29 163.42 648.808 149.536 618.503 141.906C589.486 132.064 558.479 124.658 527.549 120.513M465.296 118.923C470.088 120.415 476.244 117.311 476.238 123.62C476.828 123.991 477.013 122.522 478.059 123.433C480.68 131.779 442.294 123.196 435.393 123.888C416.315 123.755 396.668 124.273 377.299 124.066C287.254 129.419 193.314 149.676 119.588 204.249C168.087 134.408 325.778 116.921 406.478 116.518M436.473 513.193C465.288 516.59 495.319 519.848 523.533 517.899C530.955 519.017 538.432 517.019 545.809 518.206C623.414 512.2 718.862 492.952 779.39 439.561C802.848 418.87 821.05 393.132 830.955 360.895C834.202 358.594 831.864 353.068 833.691 350.44C835.294 348.711 833.083 346.641 834.64 345.575C837.219 343.821 833.782 342.265 834.666 340.594C835.393 339.275 834.407 337.596 836.286 336.644C835.779 191.357 671.264 116.519 549.04 88.3242C529.301 84.5085 509.126 79.9946 488.95 77.8684C487.226 77.8746 486.369 77.5459 486.663 75.5044C490.293 35.8783 488.84 45.6582 526.027 50.9606C670.963 76.2932 880.159 158.77 894.375 328.159C889.35 495.13 675.482 549.692 535.714 550.58C468.81 553.532 399.537 542.253 334.306 526.525C324.186 522.73 314.281 520.51 304.033 517.738C188.263 477.809 43.1343 401.248 33.6427 264.89C30.0711 224.173 50.1709 183.986 76.6568 153.169C94.9375 132.529 120.791 113.009 145.313 99.9084C151.03 97.9173 147.31 106.366 151.996 107.809C153.992 109.21 149.845 110.63 151.565 112.738C153.235 117.031 154.806 110.481 156.821 113.814C159.771 115.669 158.528 106.478 155.534 106.176C154.207 105.713 154.442 104.438 155.399 103.667C158.586 101.247 151.339 95.7573 155.07 94.0734C177.604 83.6918 200.158 72.8373 224.168 66.204C295.803 42.8773 372.283 38.8171 446.285 41.3587C451.497 43.9804 495.54 42.0976 487.59 46.9628C484.471 47.0535 484.991 49.7647 484.688 51.5823C482.897 53.0273 489.973 55.1148 486.874 56.8408C483.225 57.5701 483.515 60.325 483.236 63.4445C483.227 63.8145 483.193 65.2719 484.128 64.3873C486.684 62.5187 486.958 67.4946 484.778 66.961C481.613 66.2293 481.182 72.6421 484.237 73.9537C488.833 80.2836 464.047 73.7223 460.413 75.5296C435.27 71.5175 409.506 74.5323 384.294 73.4436C262.165 79.0706 73.7392 137.056 94.0884 289.512C99.6506 313.787 109.534 335.695 122.668 355.402C172.632 430.373 269.592 473.723 354.132 497.45C373.411 502.544 394.014 506.338 414.099 510.382M466.076 205.41C463.675 204.255 468.565 199.601 469.171 203.722C457.989 203.914 565.295 221.512 586.082 229.207C672.622 256.223 760.063 297.241 819.755 367.795C819.347 391.013 791.989 418.642 774.599 433.975C649.515 532.273 470.939 524.958 326.216 482.729C324.464 479.985 320.428 482.597 318.731 479.712C245.751 455.625 173.698 415.222 128.254 351.951C116.833 333.184 92.1011 295.198 103.398 275.314C128.647 259.706 154.594 244.806 182.757 234.612C252.295 208.61 327.545 199.725 401.219 201.001C421.864 201.182 442.846 202.856 463.51 204.673C467.223 204.323 463.112 209.333 466.461 209.197C471.42 211.453 468.601 204.978 472.688 205.826C502.448 209.156 568.954 223.084 466.076 205.41ZM108.167 33.7724C108.982 31.4624 111.005 31.4497 111.941 33.8312C111.067 34.8347 108.058 36.4309 108.167 33.7724ZM477.517 116.72C474.821 114.934 479.656 111.312 480.538 115.023C479.539 115.528 478.936 117.046 477.517 116.72ZM475.051 136.346C472.355 134.56 477.191 130.938 478.073 134.649C477.069 135.191 476.466 136.709 475.051 136.346ZM474.006 152.413C475.942 153.992 475.373 155.84 472.881 156.01C470.194 155.338 472.749 153.183 474.006 152.413ZM471.6 172.462C472.116 173.121 472.606 173.693 473.09 174.311C470.056 177.901 467.132 174.053 471.6 172.462ZM144.194 88.5537C142.6 88.4277 143.01 86.6553 143.913 86.0264C144.517 86.8816 146.451 88.4662 144.194 88.5537ZM711.915 105.877C711.753 105.671 711.653 105.577 711.524 105.413C712.035 105.217 712.491 104.866 712.777 105.57C712.5 105.684 712.191 105.764 711.915 105.877ZM266.633 50.3563C266.841 50.1968 266.961 50.1306 267.127 50.003C267.325 50.5104 267.682 50.9476 266.973 51.2297C266.862 50.9188 266.749 50.6306 266.633 50.3563ZM263.25 50.762C263.868 51.2107 263.418 51.5095 263.096 51.9886C262.478 51.5399 262.932 51.2045 263.25 50.762ZM740.177 120.226C740.357 119.989 740.538 119.738 740.722 119.464C741.34 119.913 740.891 120.212 740.568 120.691C740.439 120.526 740.306 120.391 740.177 120.226ZM239.253 57.3001C239.432 57.0629 239.613 56.8117 239.798 56.5379C240.415 56.9866 239.966 57.2855 239.644 57.7646C239.514 57.5999 239.382 57.4648 239.253 57.3001ZM743.171 121.433C743.333 121.639 743.433 121.733 743.562 121.898C743.051 122.093 742.595 122.444 742.309 121.74C742.622 121.631 742.895 121.547 743.171 121.433ZM746.947 123.569C746.739 123.728 746.619 123.794 746.453 123.922C746.254 123.415 745.898 122.977 746.607 122.695C746.718 123.006 746.831 123.294 746.947 123.569ZM232.715 58.9709C232.895 58.7337 233.076 58.4825 233.26 58.2087C233.878 58.6574 233.428 58.9563 233.106 59.4354C232.977 59.2707 232.876 59.1768 232.715 58.9709ZM749.092 124.669C749.253 124.875 749.354 124.969 749.483 125.133C748.972 125.329 748.516 125.68 748.23 124.976C748.506 124.862 748.779 124.778 749.092 124.669ZM230.091 59.8873C230.271 59.6501 230.452 59.3989 230.637 59.1252C231.254 59.5739 230.805 59.8727 230.482 60.3518C230.353 60.1871 230.22 60.052 230.091 59.8873ZM751.665 126.238C751.486 126.475 751.305 126.727 751.12 127C750.503 126.552 750.952 126.253 751.274 125.774C751.404 125.938 751.541 126.037 751.665 126.238ZM227.637 61.2404C227.476 61.0346 227.375 60.9406 227.246 60.7759C227.757 60.5804 228.214 60.2295 228.5 60.9334C228.223 61.0471 227.913 61.1267 227.637 61.2404ZM224.49 61.2604C224.31 61.4976 224.129 61.7488 223.945 62.0226C223.327 61.5739 223.777 61.275 224.099 60.7959C224.228 60.9606 224.324 61.0911 224.49 61.2604ZM757.587 129.474C757.407 129.711 757.226 129.963 757.042 130.236C756.424 129.788 756.874 129.489 757.196 129.01C757.288 129.17 757.421 129.305 757.587 129.474ZM221.137 62.9159C220.976 62.71 220.875 62.6161 220.746 62.4514C221.257 62.2558 221.713 61.9048 221.999 62.6088C221.686 62.7179 221.413 62.8021 221.137 62.9159ZM758.966 131.309C759.146 131.071 759.327 130.82 759.511 130.546C760.129 130.995 759.679 131.294 759.357 131.773C759.228 131.608 759.132 131.478 758.966 131.309ZM218.476 63.8276C218.315 63.6218 218.214 63.5278 218.085 63.3631C218.596 63.1676 219.052 62.8166 219.338 63.5206C219.062 63.6343 218.752 63.7139 218.476 63.8276ZM761.319 132.85C761.498 132.613 761.68 132.362 761.864 132.088C762.481 132.537 762.032 132.836 761.71 133.315C761.576 133.187 761.443 133.051 761.319 132.85ZM189.173 73.8526C189.353 73.6154 189.534 73.3642 189.718 73.0904C190.336 73.5391 189.886 73.838 189.564 74.3171C189.435 74.1524 189.339 74.0219 189.173 73.8526ZM714.5 178.886C714.666 179.055 714.711 179.594 714.84 179.759C714.328 179.955 713.872 180.306 713.586 179.602C713.862 179.488 714.224 179 714.5 178.886ZM182.177 149.811C182.385 149.651 182.505 149.585 182.671 149.457C182.869 149.965 183.226 150.402 182.517 150.684C182.406 150.373 182.293 150.085 182.177 149.811Z" fill="#E2DE80"/>
</svg>
