<svg width="843" height="768" viewBox="0 0 843 768" fill="none" xmlns="http://www.w3.org/2000/svg">
<path d="M625.444 673.219C625.726 691.156 631.345 711.515 640.171 727.879C644.454 724.101 646.279 730.75 640.647 729.582C640.943 734.047 648.598 733.047 645.24 736.04C642.692 737.035 644.437 738.992 644.731 739.077C650.104 742.179 648.955 749.741 654.438 753.247C655.598 751.237 660.189 752.35 657.733 754.673C654.321 755.382 656.884 756.587 657.081 758.104C657.351 760.088 662.176 757.676 659.732 761.537C661.506 763.072 662.468 768.388 665.2 767.074C663.795 764.009 670.252 764.418 668.047 761.104C667.418 760.188 666.142 759.723 664.707 760.127C663.272 760.532 663.924 759.106 663.607 758.54C662.744 757.064 665.404 757.879 664.83 756.867C661.278 754.179 659.589 749.824 656.699 745.987C657.54 746.387 656.536 746.937 656.338 747.206C652.257 751.228 651.726 742.861 656.699 745.987C656.328 743.732 655.645 741.349 652.279 741.532C650.596 741.623 651.615 739.933 650.999 739.365C652.264 738.735 652.529 738.499 651.495 736.796C646.723 729.534 644.782 721.453 640.529 713.81C641.37 714.211 640.366 714.761 640.169 715.03C636.088 719.052 635.557 710.684 640.529 713.81C641.634 711.897 639.852 710.675 639.089 709.172C638.359 707.688 637.345 708.998 636.605 709.165C634.995 709.724 634.224 706.602 635.962 706.415C639.644 707.393 637.7 700.21 635.198 702.167C634.076 702.625 633.575 702.378 633.235 701.034C632.786 698.394 637.627 700.411 635.933 696.881C635.416 692.799 632.541 697.184 631.448 694.768C631.164 693.626 631.016 692.99 632.446 692.965C635.793 693.111 633.807 686.372 631.263 688.475C628.132 688.921 629.259 684.888 632.467 686.315C634.83 687.126 632.522 680.798 631.414 679.521C632.255 679.922 631.251 680.472 631.053 680.74C626.972 684.762 626.442 676.395 631.414 679.521C634.7 675.763 626.769 661.488 633.151 660.538C650.468 658.333 668.876 656.541 684.69 652.702C699.161 649.704 713.464 641.426 728.108 640.654C730.738 641.747 732.721 639.427 735.066 638.485C752.451 623.01 777.254 614.302 793.9 596.317C799.87 592.961 803.249 582.353 810.495 582.582C814.527 582.954 817.568 581.179 819.327 577.688C959.495 299.378 430.095 -60.1532 165.937 9.26388C145.93 14.5213 52.6742 36.4598 11.0621 121.505C12.5907 132.379 4.98556 143.545 4.09407 156.977C-0.405181 175.172 4.02621 194.616 0.364022 212.401C33.5534 406.789 216.725 550.106 392.021 618.871C465.319 648.093 545.458 664.424 624.514 660.786C624.087 660.53 623.705 660.532 623.797 660.372C624.07 659.084 622.883 657.593 625.158 658.779C626.055 659.381 625.669 660.05 624.514 660.786C623.06 662.413 623.927 666.337 626.083 665.499C631.02 668.094 619.401 668.752 626.924 674.073C628.326 674.84 627.703 674.879 626.93 675.029C625.468 675.333 626.391 673.808 625.83 673.442C624.241 670.994 634.722 673.048 625.444 673.219ZM732.685 510.059C733.076 509.307 733.643 509.142 734.397 509.62C734.788 508.868 735.355 508.703 736.109 509.181C736.5 508.428 737.067 508.263 737.821 508.741C738.212 507.989 738.841 507.717 740.942 508.164C740.468 508.613 738.814 508.73 739.771 507.964C740.521 507.631 741.653 507.825 739.533 508.302C739.141 509.054 738.574 509.219 737.821 508.741C737.429 509.493 736.863 509.658 736.109 509.181C735.718 509.933 735.151 510.097 734.397 509.62M301.337 406.154C287.228 397.752 276.072 386.537 262.211 377.854C192.625 319.097 122.385 246.835 103.171 154.698C101.114 150.236 104.321 147.803 107.229 145.144C108.071 144.057 108.044 142.098 109.694 142.285C111.758 150.153 116.335 158.571 118.298 166.762C216.758 381.614 497.97 541.311 732.652 510.04C633.159 541.422 522.971 515.544 429.662 475.959C408.966 470.048 390.585 456.488 370.378 448.394C368.999 448.405 366.549 447.596 367.76 444.979C367.967 444.546 367.278 444.7 367.021 444.552C364.598 443.621 366.936 442.618 366.79 441.088C363.734 438.43 363.962 446.654 359.91 442.825C343.924 434.702 330.19 423.346 314.328 415.081M689.477 549.828C689.868 549.076 690.435 548.911 691.189 549.389C691.58 548.637 692.147 548.472 692.901 548.95C693.292 548.198 693.921 547.925 696.022 548.373C695.548 548.822 693.895 548.938 694.851 548.172C695.601 547.84 696.733 548.034 694.613 548.511C694.222 549.263 693.655 549.427 692.901 548.95C692.51 549.702 691.942 549.866 691.189 549.389C690.765 550.122 690.199 550.287 689.477 549.828ZM345.58 477.378C345.18 476.212 346.23 476.624 346.584 476.531C350.097 475.795 350.264 475.879 351.47 473.641C359.361 470.969 369.196 483.505 378.386 484.899C471.107 531.075 577.827 559.024 681.535 550.953C608.898 567.396 529.803 551.411 459.964 527.715C456.69 528.929 454.745 524.496 451.489 525.677M88.2572 205.569C87.6783 204.937 87.3074 204.613 87.7815 203.866C87.0231 203.471 86.8314 202.911 87.3054 202.164C86.547 201.769 86.3561 201.209 86.8301 200.462C86.0717 200.067 86.0163 199.271 86.7665 198.046C86.6745 198.205 86.4465 198.6 86.3544 198.76C86.1201 198.497 85.8893 198.228 85.724 197.92C85.5821 196.903 86.8979 197.373 86.3544 198.76C87.1128 199.155 87.3042 199.715 86.8301 200.462C87.5885 200.857 87.7795 201.417 87.3054 202.164C88.0638 202.559 88.2555 203.12 87.7815 203.866C88.572 204.28 88.7312 204.822 88.2572 205.569C88.827 206.068 89.8533 206.073 90.0458 207.077ZM342.726 467.165C347.97 470.193 347.981 470.024 344.75 475.472C325.111 472.042 303.818 452.01 284.974 440.96C204.614 384.444 122.845 310.828 91.6655 214.674C121.462 274.44 162.548 330.252 213.964 374.267C234.499 394.499 257.482 414.5 283.027 429.843M90.9537 248.524C90.1953 248.129 90.0036 247.569 90.4777 246.822C89.7193 246.426 89.4578 245.988 90.208 244.763C90.1159 244.922 90.094 244.96 90.002 245.12C89.7676 244.857 89.5369 244.588 89.3715 244.28C89.2297 243.262 90.5454 243.733 90.002 245.12C90.7603 245.515 90.9517 246.075 90.4777 246.822C91.2682 247.236 91.4278 247.777 90.9537 248.524ZM263.713 454.381C195.744 404.339 112.33 336.024 91.4294 250.226C126.396 320.206 179.852 382.826 242.991 429.569C271.152 452.121 302.387 474.919 335.633 490.669C333.732 493.144 333.23 499.735 329.067 496.395C318.482 490.582 308.372 484.465 298.703 477.437M83.5196 251.37C82.7612 250.974 82.5695 250.414 83.0435 249.667C82.2852 249.272 82.0941 248.712 82.5682 247.965C81.1024 246.566 81.1165 245.056 82.2669 243.509C81.5086 243.114 81.2471 242.675 81.9973 241.45C81.9052 241.609 81.8833 241.647 81.7912 241.807C81.5569 241.544 81.3261 241.275 81.1608 240.967C81.0189 239.949 82.3347 240.42 81.7912 241.807C82.5496 242.202 82.741 242.762 82.2669 243.509C83.7327 244.908 83.7186 246.419 82.5682 247.965C83.3266 248.361 83.5176 248.921 83.0435 249.667C83.8157 250.113 83.9752 250.655 83.5196 251.37ZM307.586 513.02C311.387 515.13 315.188 517.239 318.879 519.54C314.083 540.625 293.537 512.835 281.935 509.155C259.842 495.337 238.985 479.008 218.687 463.122C217.944 460.397 214.408 460.279 213.591 458.277C212.379 455.323 208.419 455.496 207.975 452.179C150.398 400.186 94.0829 330.925 83.9953 253.072C110.929 345.286 178.889 423.057 255.945 477.495M665.829 583.284C666.22 582.531 666.787 582.367 667.541 582.844C668.18 582.108 668.031 580.732 671.074 581.553C669.639 582.553 669.23 580.736 670.926 580.992C670.977 580.979 671.181 581.071 669.871 581.335C669.231 582.071 669.218 583.728 667.541 582.844C667.099 583.61 666.55 583.743 665.829 583.284C665.438 584.036 664.871 584.2 664.117 583.723C663.726 584.475 663.159 584.639 662.405 584.162C662.014 584.914 661.447 585.079 660.693 584.601C548.4 628.493 416.624 583.464 316.339 530.922C315.765 529.613 315.346 527.443 317.171 528.071C321.938 528.952 321.382 524.49 324.129 521.144C323.614 522.632 322.099 521.764 321.221 522.32C318.478 518.525 326.728 517.906 323.511 522.215C358.691 540.485 395.477 557.756 432.684 569.542C505.575 594.193 585.416 603.908 660.487 584.958C660.878 584.206 661.651 583.684 662.405 584.162C662.796 583.41 663.363 583.245 664.117 583.723C664.527 582.939 665.075 582.806 665.829 583.284ZM612.348 585.716C611.957 586.468 611.39 586.633 610.636 586.155C609.619 587.694 608.759 586.286 607.316 585.665C544.913 595.304 469.872 573.857 409.11 549.746C381.152 540.365 354.459 526.119 327.414 513.523C325.257 514.659 325.139 509.738 327.364 510.639C332.834 511.714 331.752 502.295 337.919 507.216C348.181 514.034 359.822 517.797 370.066 524.349C394.506 534.25 418.994 545.107 444.253 554.333C447.321 552.958 449.146 557.449 452.213 556.074C502.29 574.1 555.532 582.556 607.862 585.981C608.879 584.442 609.74 585.85 610.636 586.155C611.027 585.403 611.594 585.238 612.348 585.716C613.365 584.177 614.288 585.477 616.531 585.752C616.057 586.201 614.609 585.96 615.566 585.195C616.316 584.862 617.242 585.413 615.122 585.89C614.105 587.428 613.244 586.021 612.348 585.716ZM591.824 653.808C592.841 652.27 593.701 653.677 594.597 653.982C595.992 652.534 597.442 652.696 623.699 653.654C616.393 655.09 606.604 655.253 599.083 653.717C606.514 652.437 616.116 651.853 623.693 652.698C623.868 652.842 623.815 653.156 599.083 653.717C597.689 655.166 596.16 655.14 594.597 653.982C593.576 655.603 592.752 654.132 591.824 653.808C590.806 655.347 589.946 653.94 589.05 653.635C588.033 655.173 587.172 653.766 585.794 653.182C585.954 653.275 586.115 653.368 586.276 653.461C586.014 653.692 585.645 654.183 585.336 654.346C584.316 654.479 584.879 652.909 586.276 653.461C587.293 651.922 588.154 653.33 589.05 653.635C590.035 652.077 590.895 653.485 591.824 653.808ZM54.468 339.283C56.233 340.09 57.0388 341.369 56.4813 343.301C57.2257 343.943 58.8935 343.952 58.0188 345.616C58.7632 346.258 60.4307 346.268 59.556 347.931C61.5549 349.595 63.5407 351.283 63.1388 354.282C63.8832 354.925 65.5506 354.934 64.676 356.597C65.4204 357.24 66.8821 357.606 66.0075 359.269C66.7519 359.912 68.4197 359.921 67.545 361.585C68.2895 362.227 69.9569 362.236 69.0822 363.9C69.8267 364.542 71.4944 364.551 70.6198 366.215C71.3642 366.857 73.032 366.867 72.1573 368.53C72.9018 369.173 74.7282 368.907 73.9262 371.931C72.911 370.494 74.6988 370.073 74.454 371.76C74.4678 371.81 73.9695 372.152 73.6945 370.845C72.9501 370.203 71.2827 370.194 72.1573 368.53C71.4129 367.888 69.7451 367.878 70.6198 366.215C69.8754 365.573 68.2076 365.563 69.0822 363.9C68.3378 363.257 66.6704 363.248 67.545 361.585C66.8006 360.942 65.1328 360.933 66.0075 359.269C65.2631 358.627 63.8013 358.261 64.676 356.597C63.9316 355.955 62.2641 355.946 63.1388 354.282C61.1398 352.618 59.154 350.931 59.556 347.931C58.8116 347.289 57.1441 347.28 58.0188 345.616C57.2744 344.974 55.6066 344.964 56.4813 343.301M580.156 653.734C579.682 654.183 578.234 653.943 579.191 653.177C579.941 652.844 581.073 653.038 578.953 653.515C577.936 655.054 576.869 654.003 575.973 653.698C574.956 655.237 574.095 653.829 573.199 653.524C572.182 655.063 571.322 653.655 570.425 653.35C569.408 654.889 568.548 653.481 567.652 653.176C566.634 654.715 565.774 653.307 564.395 652.724C564.556 652.817 564.717 652.91 564.878 653.002C564.616 653.234 564.452 653.368 564.144 653.53C563.123 653.664 563.48 652.451 564.878 653.002C565.895 651.464 566.755 652.871 567.652 653.176C568.669 651.638 569.529 653.045 570.425 653.35C571.443 651.812 572.303 653.219 573.199 653.524C574.216 651.985 575.076 653.393 575.973 653.698C577.008 652.127 577.894 653.491 580.156 653.734ZM312.174 493.78C315.97 495.972 319.767 498.164 323.563 500.356C329.607 503.335 327.979 504.446 325.176 509.376C306.085 503.881 284.71 486.813 266.667 475.12C252.448 464.827 235.306 455.438 223.442 442.551C195.26 418.329 165.443 390.251 145.771 359.163C167.104 381.132 188.885 405.372 213.852 424.166C236.773 444.5 262.474 463.361 289.37 479.187M346.125 504.816C342.288 501.581 335.41 502.052 337.864 496.24C337.465 495.67 336.724 496.951 336.114 495.706C336.938 486.997 368.982 509.806 375.611 511.847C393.142 519.375 411.449 526.525 429.219 534.233C514.282 564.252 608.718 582.047 697.847 560.37C626.041 605.91 473.926 560.817 399.398 529.863M525.728 152.648C500.491 138.332 474.079 123.673 447.321 114.517C440.914 110.606 433.248 109.545 426.91 105.588C353.059 81 257.623 61.6895 181.117 87.3999C151.467 97.3638 124.702 114.018 103.06 139.883C99.1742 140.743 99.1847 146.743 96.4801 148.456C94.3323 149.427 95.5664 152.193 93.7178 152.571C90.6599 153.187 93.2232 155.955 91.7603 157.151C90.5781 158.084 90.8356 160.015 88.7343 160.163C32.8072 294.255 155.374 427.083 257.071 500.51C273.781 511.688 290.622 523.679 308.391 533.47C309.981 534.134 310.644 534.769 309.58 536.537C290.854 571.647 295.989 563.198 263.776 543.877C140.037 464.272 -20.7422 307.06 31.9061 145.435C101.349 -6.49405 319.626 26.2369 448.78 79.6713C511.584 102.92 571.047 140.203 625.059 180.019C632.912 187.444 641.179 193.335 649.548 199.867C740.742 281.602 844.773 408.494 800.592 537.844C788.079 576.755 753.956 605.99 717.585 624.109C692.726 636.035 661.323 643.989 633.638 646.544C627.597 646.16 634.305 639.817 630.546 636.669C629.251 634.603 633.623 634.904 632.857 632.293C632.984 627.69 628.993 633.116 628.43 629.262C626.432 626.407 624.009 635.36 626.652 636.8C627.695 637.743 626.984 638.827 625.802 639.165C621.925 640.158 626.473 648.031 622.381 648.134C597.585 648.955 572.585 650.204 547.884 646.998C472.81 640.689 400.752 614.745 333.539 583.678C329.753 579.239 288.432 563.878 297.647 562.48C300.557 563.608 301.13 560.907 302.115 559.35C304.327 558.713 298.615 554.043 302.142 553.655C305.787 554.399 306.589 551.748 308.058 548.981C308.21 548.644 308.806 547.314 307.601 547.766C304.52 548.496 306.2 543.804 308.001 545.142C310.634 547.045 313.521 541.302 311.214 538.907C309.435 531.29 329.731 546.958 333.782 546.703C355.396 560.16 380.311 567.382 403.122 578.171C517.86 620.391 714.019 640.092 754.443 491.69C758.74 467.159 758.134 443.133 753.68 419.873C736.735 331.387 664.203 253.8 595.501 199.118C579.711 186.94 562.197 175.447 545.257 163.923M378.977 424.807C380.742 426.804 374.428 429.195 375.47 425.162C385.849 429.326 293.788 371.456 277.618 356.295C208.349 297.806 143.686 226.063 116.06 137.871C125.449 116.632 161.387 101.788 183.364 94.4076C336.796 52.3694 498.531 128.427 615.515 223.521C616.065 226.729 620.798 225.888 621.242 229.206C679.15 279.733 729.871 344.936 747.192 420.886C750.433 442.614 758.481 487.222 740.352 501.162C711.025 505.745 681.329 509.405 651.416 507.868C577.238 504.84 504.439 483.819 437.037 454.046C418.081 445.865 399.394 436.178 381.056 426.483C377.498 425.364 383.231 422.343 380.092 421.168C376.398 417.165 376.482 424.225 373.045 421.858C346.911 407.238 291.026 368.586 378.977 424.807ZM642.2 721.913C640.553 723.726 638.684 722.952 638.745 720.394C639.941 719.809 643.333 719.505 642.2 721.913ZM334.007 502.103C335.799 504.796 329.936 506.256 330.564 502.494C331.681 502.417 332.826 501.251 334.007 502.103ZM343.898 484.973C345.689 487.665 339.827 489.126 340.454 485.364C341.59 485.254 342.735 484.089 343.898 484.973ZM351.098 470.571C349.927 468.364 351.168 466.882 353.531 467.693C355.746 469.355 352.555 470.35 351.098 470.571ZM361.097 453.028C360.877 452.221 360.648 451.503 360.441 450.746C364.631 448.615 365.833 453.296 361.097 453.028ZM630.262 657.443C631.683 658.178 630.617 659.652 629.541 659.881C629.316 658.859 628.148 656.647 630.262 657.443ZM113.78 421.112C113.848 421.364 113.905 421.49 113.96 421.692C113.412 421.673 112.856 421.82 112.866 421.06C113.165 421.062 113.481 421.109 113.78 421.112ZM502.596 645.119C502.343 645.186 502.207 645.2 502.004 645.253C502.018 644.709 501.859 644.167 502.622 644.183C502.604 644.512 502.597 644.822 502.596 645.119ZM505.872 646.059C505.477 645.406 506.007 645.305 506.49 644.988C506.885 645.641 506.336 645.774 505.872 646.059ZM93.3025 396.917C93.0449 397.066 92.7803 397.227 92.5043 397.408C92.1094 396.755 92.6395 396.654 93.1225 396.337C93.1775 396.539 93.2475 396.715 93.3025 396.917ZM530.526 649.348C530.268 649.497 530.003 649.658 529.727 649.839C529.332 649.186 529.863 649.085 530.346 648.768C530.401 648.97 530.471 649.146 530.526 649.348ZM91.0118 394.643C90.943 394.391 90.8869 394.265 90.8318 394.063C91.3789 394.081 91.9357 393.935 91.926 394.695C91.595 394.674 91.3107 394.645 91.0118 394.643ZM88.3615 391.209C88.6144 391.143 88.7513 391.129 88.9536 391.075C88.9395 391.62 89.0987 392.162 88.3355 392.146C88.3541 391.817 88.3613 391.507 88.3615 391.209ZM537.199 650.346C536.942 650.495 536.677 650.656 536.401 650.837C536.006 650.184 536.536 650.083 537.019 649.766C537.074 649.968 537.13 650.094 537.199 650.346ZM86.8113 389.363C86.7425 389.11 86.6864 388.985 86.6313 388.783C87.1785 388.801 87.7349 388.655 87.7252 389.415C87.4263 389.412 87.1424 389.384 86.8113 389.363ZM539.973 650.52C539.715 650.669 539.45 650.83 539.174 651.011C538.779 650.357 539.31 650.256 539.793 649.94C539.848 650.142 539.918 650.318 539.973 650.52ZM85.0488 386.918C85.3063 386.769 85.5709 386.608 85.8469 386.427C86.2419 387.08 85.7118 387.181 85.2288 387.497C85.1737 387.295 85.0854 387.151 85.0488 386.918ZM542.76 650.225C542.829 650.478 542.885 650.603 542.94 650.805C542.393 650.787 541.836 650.933 541.846 650.174C542.144 650.176 542.461 650.223 542.76 650.225ZM545.668 651.429C545.926 651.28 546.19 651.119 546.466 650.938C546.861 651.591 546.331 651.692 545.848 652.008C545.793 651.807 545.755 651.649 545.668 651.429ZM80.8475 381.637C81.1051 381.488 81.3697 381.327 81.6457 381.146C82.0407 381.799 81.5105 381.9 81.0275 382.217C81.0047 382.033 80.9347 381.857 80.8475 381.637ZM549.401 651.204C549.469 651.457 549.526 651.582 549.581 651.784C549.034 651.766 548.477 651.913 548.487 651.153C548.818 651.174 549.102 651.202 549.401 651.204ZM80.2888 379.411C80.0312 379.56 79.7666 379.721 79.4907 379.902C79.0957 379.249 79.6258 379.148 80.1088 378.831C80.1638 379.033 80.2016 379.19 80.2888 379.411ZM552.207 651.397C552.276 651.649 552.332 651.775 552.387 651.977C551.84 651.959 551.283 652.105 551.293 651.345C551.592 651.348 551.908 651.395 552.207 651.397ZM78.7189 377.077C78.4614 377.226 78.1967 377.387 77.9208 377.568C77.5258 376.915 78.0559 376.814 78.5389 376.497C78.6124 376.667 78.6823 376.843 78.7189 377.077ZM583.103 653.532C582.846 653.681 582.581 653.842 582.305 654.023C581.91 653.37 582.44 653.269 582.923 652.952C582.978 653.154 583.016 653.312 583.103 653.532ZM139.736 352.824C139.649 352.604 139.817 352.089 139.762 351.887C140.309 351.906 140.866 351.759 140.856 352.519C140.557 352.517 140.035 352.827 139.736 352.824ZM619.035 586.245C618.782 586.312 618.645 586.326 618.442 586.379C618.457 585.835 618.297 585.293 619.061 585.309C619.042 585.638 619.035 585.948 619.035 586.245Z" fill="#FFB5D9"/>
</svg>
